<?xml version="1.0" encoding="utf-8"?>
<!-- Generator: Adobe Illustrator 18.0.0, SVG Export Plug-In . SVG Version: 6.00 Build 0)  -->
<!DOCTYPE svg PUBLIC "-//W3C//DTD SVG 1.1//EN" "http://www.w3.org/Graphics/SVG/1.1/DTD/svg11.dtd">
<svg version="1.1" id="Layer_1" xmlns="http://www.w3.org/2000/svg" xmlns:xlink="http://www.w3.org/1999/xlink" x="0px" y="0px"
	 width="17px" height="13.9px" viewBox="0 0 17 13.9" enable-background="new 0 0 17 13.9" xml:space="preserve">
<g opacity="0.5">
	<path fill="#A0A8B2" d="M17,4.3v6.5c0,1.3-1.1,2.4-2.4,2.4h-2.4c0.6-0.3,1-0.9,1.4-1.6h1c0.5,0,0.8-0.4,0.8-0.9V4.3
		c0-0.5-0.4-0.8-0.8-0.8h-2.3l-1.1-1.9H5.9L4.8,3.5H2.4c-0.5,0-0.8,0.4-0.8,0.8v6.5c0,0.5,0.4,0.9,0.8,0.9h1
		c0.4,0.6,0.9,1.3,1.4,1.6H2.4c-1.3,0-2.4-1.1-2.4-2.4V4.3C0,3,1.1,1.9,2.4,1.9h1.5L5,0h7.1l1.1,1.9h1.4C15.9,1.9,17,3,17,4.3z
		 M13.2,8.5c0-2.6-2.1-4.7-4.7-4.7S3.8,5.9,3.8,8.5c0,2.6,2.1,4.7,4.7,4.7S13.2,11.1,13.2,8.5z M11.7,8.5c0,1.8-1.4,3.2-3.2,3.2
		s-3.2-1.4-3.2-3.2s1.4-3.2,3.2-3.2S11.7,6.7,11.7,8.5z"/>
</g>
</svg>
