<?xml version="1.0" encoding="utf-8"?>
<!-- Generator: Adobe Illustrator 18.0.0, SVG Export Plug-In . SVG Version: 6.00 Build 0)  -->
<!DOCTYPE svg PUBLIC "-//W3C//DTD SVG 1.1//EN" "http://www.w3.org/Graphics/SVG/1.1/DTD/svg11.dtd">
<svg version="1.1" id="Layer_1" xmlns="http://www.w3.org/2000/svg" xmlns:xlink="http://www.w3.org/1999/xlink" x="0px" y="0px"
	 width="35px" height="35px" viewBox="7.7 6.3 35 35" enable-background="new 7.7 6.3 35 35" xml:space="preserve">
<path fill="#FFFFFF" d="M15.1,14.3v14.4h5.3v3.4c0,0.5,0.3,0.9,0.7,1.1c0.2,0,0.3,0.1,0.4,0.1c0.3,0,0.6-0.1,0.8-0.3l4.5-4.2h8.3
	c0,0,0-2,0-4.5v-9.9H15.1z M17.5,26.4v-9.9H33v9.9h-7l-3.2,3.1v-3.1C22.8,26.4,17.5,26.4,17.5,26.4z"/>
<rect x="21.2" y="20.5" fill="#FFFFFF" width="2" height="2"/>
<rect x="24.2" y="20.5" fill="#FFFFFF" width="2" height="2"/>
<rect x="27.2" y="20.5" fill="#FFFFFF" width="2" height="2"/>
</svg>
