<?xml version="1.0" encoding="utf-8"?>
<!-- Generator: Adobe Illustrator 18.1.1, SVG Export Plug-In . SVG Version: 6.00 Build 0)  -->
<svg version="1.1" id="Layer_1" xmlns="http://www.w3.org/2000/svg" xmlns:xlink="http://www.w3.org/1999/xlink" x="0px" y="0px"
	 viewBox="0 0 51.5 37.4" enable-background="new 0 0 51.5 37.4" xml:space="preserve">
<path fill="#FFFFFF" d="M40.8,7.4c-0.8,0-1.5,0.1-2.3,0.2C36.9,5,34,3.2,30.7,3.2c-1.3,0-2.5,0.3-3.6,0.8c-2.1-2.4-5.2-4-8.7-4
	C12,0,6.9,5.2,6.9,11.5c0,0.6,0.1,1.2,0.2,1.8c-4.1,1.4-7,5.2-7,9.7c0,5.7,4.6,10.3,10.3,10.3c1,0,1.9-0.1,2.8-0.4
	c1.5,2.6,4.3,4.4,7.5,4.4c3.7,0,6.8-2.3,8-5.6c1.4,1.3,3.2,2.1,5.2,2.1c3.3,0,6.1-2.1,7.2-5c5.8-0.1,10.4-4.9,10.4-10.7
	C51.5,12.2,46.7,7.4,40.8,7.4z M30.1,25.1c-1.4,0.9-3.1,1.4-4.8,1.4c-0.3,0-0.5,0-0.8,0c-4.1-0.4-7.4-3.6-7.8-7.6
	c-0.3-2.5,0.5-5,2.2-6.8c1.6-1.8,4-2.9,6.5-2.9c1.7,0,3.3,0.5,4.7,1.4c0.5,0.3,0.8,0.8,0.8,1.4c0.1,0.6-0.1,1.1-0.5,1.5l-0.3,0.3
	c-0.6,0.6-1.7,0.7-2.4,0.2c-1.3-0.8-3.4-0.8-4.7,0c-1.2,0.8-1.9,2.1-1.9,3.9c0,1.1,0.3,3.7,3.1,4.4c1.2,0.3,2.5,0.1,3.4-0.5
	c0.8-0.5,1.8-0.4,2.4,0.2l0.3,0.3c0.4,0.4,0.6,1,0.5,1.5C30.9,24.3,30.6,24.8,30.1,25.1z"/>
</svg>
