<?xml version="1.0" encoding="utf-8"?>
<!-- Generator: Adobe Illustrator 18.0.0, SVG Export Plug-In . SVG Version: 6.00 Build 0)  -->
<!DOCTYPE svg PUBLIC "-//W3C//DTD SVG 1.1//EN" "http://www.w3.org/Graphics/SVG/1.1/DTD/svg11.dtd">
<svg version="1.1" id="Layer_1" xmlns="http://www.w3.org/2000/svg" xmlns:xlink="http://www.w3.org/1999/xlink" x="0px" y="0px"
	 width="47px" height="45px" viewBox="-1 0 47 45" enable-background="new -1 0 47 45" xml:space="preserve">
<g>
	<path fill="#FFFFFF" d="M28.3,35l0.1,4.7h-3.8l-0.1-4.4c-0.4-3.9-4.3-6-10.8-6S3.3,31.3,2.8,35.4l-0.1,4.4H-1l0.1-4.7
		c0.3-3.6,2.8-9.7,14.6-9.7C25.5,25.3,28,31.3,28.3,35z M5.3,13.4c0-4.8,3.4-8.1,8.4-8.1s8.4,3.3,8.4,8.1c0,5.5-3.6,9.5-8.4,9.5
		S5.3,18.8,5.3,13.4z M9.2,13.4c0,3.3,2,5.7,4.6,5.7s4.6-2.4,4.6-5.7c0-3.7-2.8-4.3-4.6-4.3S9.2,9.7,9.2,13.4z M24.5,17
		c0-4.6,3.3-7.8,8-7.8s8,3.2,8,7.8c0,5.1-3.4,9.1-8,9.1S24.5,22.2,24.5,17z M28.3,17c0,3.1,1.7,5.2,4.2,5.2s4.2-2.2,4.2-5.2
		c0-3.6-3.2-3.9-4.2-3.9S28.3,13.4,28.3,17z M46,39.7h-3.8l-0.1-1.7c-0.3-3.6-3.6-5.5-9.5-5.5c-0.7,0-1.4,0-2,0.1
		c-0.3-1.3-1-2.6-1.7-3.7c1.1-0.2,2.4-0.3,3.7-0.3c8,0,12.8,3.4,13.3,9.2L46,39.7z"/>
</g>
</svg>
