<?xml version="1.0" encoding="utf-8"?>
<!-- Generator: Adobe Illustrator 18.0.0, SVG Export Plug-In . SVG Version: 6.00 Build 0)  -->
<!DOCTYPE svg PUBLIC "-//W3C//DTD SVG 1.1//EN" "http://www.w3.org/Graphics/SVG/1.1/DTD/svg11.dtd">
<svg version="1.1" id="Layer_1" xmlns="http://www.w3.org/2000/svg" xmlns:xlink="http://www.w3.org/1999/xlink" x="0px" y="0px"
	 width="40px" height="40px" viewBox="0 0 40 40" enable-background="new 0 0 40 40" xml:space="preserve">
<g>
	<path fill="#FFFFFF" d="M15.4,23.5c0,0.3,0.1,0.5,0.3,0.7c0.2,0.2,0.5,0.3,0.7,0.3c0.3,0,0.5-0.1,0.7-0.3l6.8-6.8l0.1-0.1l-1.5-1.5
		l-6.9,6.9C15.6,23,15.4,23.2,15.4,23.5z"/>
	<polygon fill="#FFFFFF" points="17.8,25.5 14,26.8 13.2,26 14.5,22.2 21.7,15 21.7,15 20.3,13.5 12.7,21.1 9.5,30.5 18.9,27.3 
		26.4,19.8 26.5,19.7 25,18.3 	"/>
	<path fill="#FFFFFF" d="M29.8,12.9l-2.7-2.7c-0.5-0.5-1.1-0.7-1.8-0.7c-0.7,0-1.3,0.3-1.8,0.7l-2.3,2.3l6.2,6.3l2.3-2.3
		c0.5-0.5,0.7-1.1,0.7-1.8C30.5,14,30.2,13.4,29.8,12.9z M28.4,14.7c0,0.1,0,0.2-0.1,0.3l-0.9,0.9l-3.3-3.3l0.9-0.9
		c0.2-0.2,0.5-0.2,0.7,0l2.7,2.7C28.4,14.5,28.4,14.6,28.4,14.7z"/>
</g>
</svg>
