<?xml version="1.0" encoding="utf-8"?>
<!-- Generator: Adobe Illustrator 18.0.0, SVG Export Plug-In . SVG Version: 6.00 Build 0)  -->
<!DOCTYPE svg PUBLIC "-//W3C//DTD SVG 1.1//EN" "http://www.w3.org/Graphics/SVG/1.1/DTD/svg11.dtd">
<svg version="1.1" id="Layer_1" xmlns="http://www.w3.org/2000/svg" xmlns:xlink="http://www.w3.org/1999/xlink" x="0px" y="0px"
	 width="19.9px" height="15.6px" viewBox="15 14.4 19.9 15.6" enable-background="new 15 14.4 19.9 15.6" xml:space="preserve">
<g opacity="0.4" enable-background="new    ">
	<path fill="#848E9B" d="M34.9,14.4v2l-7.9,6c-0.5,0.4-1.2,0.6-1.8,0.6c-0.7,0-1.3-0.2-1.8-0.6L15,16.1v-1.7H34.9z M32.9,20.1l2-1.7
		V30H15V18l2,1.7V27l3.7-4.6l1.6,1.2L18.8,28h12.6l-3.4-4.2l1.6-1.2l3.6,4.4v-6.9H32.9z M32,16.3H18.4l6.1,4.6c0.3,0.2,1,0.2,1.3,0
		L32,16.3z"/>
</g>
</svg>
