<?xml version="1.0" encoding="utf-8"?>
<!-- Generator: Adobe Illustrator 18.0.0, SVG Export Plug-In . SVG Version: 6.00 Build 0)  -->
<!DOCTYPE svg PUBLIC "-//W3C//DTD SVG 1.1//EN" "http://www.w3.org/Graphics/SVG/1.1/DTD/svg11.dtd">
<svg version="1.1" id="Layer_1" xmlns="http://www.w3.org/2000/svg" xmlns:xlink="http://www.w3.org/1999/xlink" x="0px" y="0px"
	 width="40px" height="40px" viewBox="0 0 40 40" enable-background="new 0 0 40 40" xml:space="preserve">
<g>
	<path fill="#FFFFFF" d="M32,10.6V13l-9.5,7.2c-0.6,0.5-1.4,0.7-2.2,0.7c-0.8,0-1.6-0.2-2.2-0.7L8,12.6v-2H32z M29.6,17.5l2.4-2
		v13.9H8V15l2.4,2v8.8l4.5-5.6l1.9,1.4l-4.3,5.4h15.2l-4.1-5.1l1.9-1.4l4.3,5.3V17.5z M28.5,12.9H12.1l7.4,5.5
		c0.4,0.3,1.2,0.3,1.6,0L28.5,12.9z"/>
</g>
</svg>
