<?xml version="1.0" encoding="utf-8"?>
<!-- Generator: Adobe Illustrator 18.0.0, SVG Export Plug-In . SVG Version: 6.00 Build 0)  -->
<!DOCTYPE svg PUBLIC "-//W3C//DTD SVG 1.1//EN" "http://www.w3.org/Graphics/SVG/1.1/DTD/svg11.dtd">
<svg version="1.1" id="Layer_1" xmlns="http://www.w3.org/2000/svg" xmlns:xlink="http://www.w3.org/1999/xlink" x="0px" y="0px"
	 width="45px" height="45px" viewBox="27.5 32.6 45 45" enable-background="new 27.5 32.6 45 45" xml:space="preserve">
<g>
	<path fill="#FFFFFF" d="M32.6,65.2c-1.1-2.9,0-4.9,0.7-6.2c0.2-0.4,0.4-0.8,0.5-1.1c0.1-0.5,0.2-1,0.2-1.5c0.1-1.3,0.3-2.7,1.1-4.1
		c0.8-1.4,1.7-2.1,2.3-2.7c0.2-0.1,0.3-0.2,0.4-0.3l-5.5-5.6c-2.3-2.3-2.3-6.1,0-8.4c1.1-1.1,2.6-1.8,4.2-1.8s3.1,0.6,4.2,1.8
		l0.9,0.9c0,0,9.9,10,11.7,11.8c1,1,2.1,1.3,2.7,0.7c0.9-0.8,1.3-2,1.7-3.3c0.4-1.4,0.9-2.9,2.1-4c1-0.9,2.2-1.4,3.5-1.4
		c2.5,0,4.9,2,5.6,4.6c0.7,2.3,2.2,13.4-2.5,21.8c-3.6,6.5-9.6,10.2-16.3,10.2c-4.9,0-9.6-2-13.3-5.7C36.4,70.6,33.5,67.7,32.6,65.2
		z M61.4,46.6c-0.5,1.6-1.1,3.6-2.9,5.2c-0.9,0.8-2.1,1.2-3.3,1.2c-1.7,0-3.4-0.8-4.8-2.2C48.6,49,38.7,38.9,38.7,38.9l-0.8-0.9
		c-0.7-0.7-2-0.7-2.8,0c-0.8,0.8-0.8,2.1,0,2.9l7.4,7.5l-0.4,1.2c-0.5,1.8-1.6,2.7-2.3,3.2c-0.5,0.4-0.9,0.7-1.3,1.4
		c-0.4,0.7-0.5,1.6-0.6,2.7c0,0.6-0.1,1.2-0.2,1.8c-0.2,0.9-0.5,1.6-0.9,2.2c-0.5,1.1-0.9,1.7-0.4,3c0.4,1.3,2.1,3.2,3.2,4.2
		c2.9,2.9,6.6,4.6,10.5,4.6c5.2,0,9.9-3,12.8-8.2c4.1-7.3,2.6-17.1,2.1-18.7c-0.3-1.1-1.1-1.7-1.8-1.7c-0.3,0-0.5,0.1-0.8,0.3
		C61.9,44.7,61.7,45.6,61.4,46.6z"/>
</g>
</svg>
