<?xml version="1.0" encoding="utf-8"?>
<!-- Generator: Adobe Illustrator 18.0.0, SVG Export Plug-In . SVG Version: 6.00 Build 0)  -->
<!DOCTYPE svg PUBLIC "-//W3C//DTD SVG 1.1//EN" "http://www.w3.org/Graphics/SVG/1.1/DTD/svg11.dtd">
<svg version="1.1" id="Layer_1" xmlns="http://www.w3.org/2000/svg" xmlns:xlink="http://www.w3.org/1999/xlink" x="0px" y="0px"
	 width="428.8px" height="800px" viewBox="1399.2 171.6 428.8 800" style="enable-background:new 1399.2 171.6 428.8 800;"
	 xml:space="preserve">
<style type="text/css">
	.st0{fill:#00ADD0;}
</style>
<path class="st0" d="M1615.4,327.5c21.4,0,38.9-17.5,38.9-38.9s-17.5-38.9-38.9-38.9s-38.9,17.5-38.9,38.9S1594,327.5,1615.4,327.5z
	 M1615.4,265.4c12.7,0,23,10.3,23,23s-10.3,23-23,23s-23-10.3-23-23C1592.4,275.7,1602.7,265.4,1615.4,265.4z M1508.9,221.2
	c13.7,0,24.8-11.1,24.8-24.8s-11.1-24.8-24.8-24.8c-13.7,0-24.8,11.1-24.8,24.8C1484.1,210.1,1495.2,221.2,1508.9,221.2z
	 M1508.9,187.3c5,0,8.9,4,8.9,8.9s-4,8.9-8.9,8.9c-5,0-8.9-4-8.9-8.9S1503.9,187.3,1508.9,187.3z M1821,910.9l-111.5-163V576.4
	l25.2-32.9c3-4,3.6-9.1,1.4-13.7c-2.2-4.4-6.3-6.9-10.9-7.1c-2.8-15.9-16.5-28-33.1-28H1675c-5.4-17.3-21.4-29.4-39.9-29.4
	c-6.3,0-12.7,1.4-18.2,4.2c-7.7-11.5-21-18.8-35.1-18.8c-23.4,0-42.4,19-42.4,42.4c0,0.6,0,1,0,1.6h-9.9
	c-17.3,0-31.5,13.1-33.5,29.9c-2,1.2-3.8,3.2-5,5.4c-2.2,4.6-1.8,9.7,1.4,13.7l25.2,32.9v171.5l-111.5,163
	c-8.3,11.9-9.1,27.2-2.6,39.9c6.7,12.7,19.8,20.6,34.1,20.6h176h175.9c14.5,0,27.6-7.9,34.1-20.6
	C1830.2,938.3,1829.4,922.6,1821,910.9z M1529.3,510.3h29.7l-3-10.1c-0.8-2.4-1-5-1-7.3c0-14.7,11.9-26.6,26.6-26.6
	c11.1,0,20.6,6.7,24.8,17.1l4,10.1l8.5-6.9c4.8-3.8,10.3-5.8,16.3-5.8c12.9,0,24,9.7,25.8,22.6l1,6.9h30.3c6.9,0,13.1,4,16.1,9.9
	h-37.9v229.1c0,2.8-2.2,5-5,5s-5-2.2-5-5V542h-51.6v107.1c0,3.4-2.6,5.9-5.9,5.9s-5.9-2.6-5.9-5.9V520.2h-83.5
	C1516.4,514.3,1522.4,510.3,1529.3,510.3z M1809.5,943.4c-4,7.5-11.5,12.1-20,12.1h-175.9h-175.9c-8.5,0-16.1-4.6-20-12.1
	c-4-7.5-3.4-16.5,1.6-23.4l114.2-167.2v-45.4h33.9v-15.9h-33.9v-23.8h33.9v-15.9h-33.9V628h33.9v-15.9h-33.9v-23.8h33.9v-15.9h-33.9
	V571l-26.8-34.9h74.2v113c0,12.1,9.7,21.8,21.8,21.8c12.1,0,21.8-9.7,21.8-21.8v-91.2h19.8v191.4c0,11.5,9.3,20.8,20.8,20.8
	s20.8-9.3,20.8-20.8V536.1h34.5l-26.8,34.9v181.9L1807.9,920C1812.9,927,1813.5,935.7,1809.5,943.4z M1458.3,915.5h305.4v15.9
	h-305.4V915.5z M1487.1,413.3c-13.7,0-24.8,11.1-24.8,24.8c0,13.7,11.1,24.8,24.8,24.8c13.7,0,24.8-11.1,24.8-24.8
	C1512.1,424.4,1500.8,413.3,1487.1,413.3z M1487.1,447.3c-5,0-8.9-4-8.9-8.9s4-8.9,8.9-8.9c5,0,8.9,4,8.9,8.9
	S1492,447.3,1487.1,447.3z M1497,396.1c3.2,0,6.3-0.2,9.5-0.8c6.1,18.6,23.8,31.7,44,31.7c25.6,0,46.4-20.8,46.4-46.4
	c0-21.6-14.9-39.9-35.1-45c0.2-1.6,0.2-3.2,0.2-4.6c0-35.7-29.2-64.8-64.8-64.8c-35.7,0-64.8,29.2-64.8,64.8
	S1461.1,396.1,1497,396.1z M1497,282.1c27,0,49,22,49,49c0,3.2-0.4,6.5-1,9.7l-1.8,8.9l9.1,0.6c16.1,1,28.6,14.3,28.6,30.3
	c0,16.9-13.7,30.5-30.5,30.5c-15.1,0-28.2-11.3-30.1-26.4l-1.2-9.1l-8.7,2.4c-4.4,1.2-8.9,1.8-13.3,1.8c-27,0-49-22-49-49
	S1469.8,282.1,1497,282.1z"/>
</svg>
