<?xml version="1.0" encoding="utf-8"?>
<!-- Generator: Adobe Illustrator 18.0.0, SVG Export Plug-In . SVG Version: 6.00 Build 0)  -->
<!DOCTYPE svg PUBLIC "-//W3C//DTD SVG 1.1//EN" "http://www.w3.org/Graphics/SVG/1.1/DTD/svg11.dtd">
<svg version="1.1" id="Layer_1" xmlns="http://www.w3.org/2000/svg" xmlns:xlink="http://www.w3.org/1999/xlink" x="0px" y="0px"
	 width="340px" height="800px" viewBox="1434.4 15.2 340 800" style="enable-background:new 1434.4 15.2 340 800;"
	 xml:space="preserve">
<style type="text/css">
	.st0{fill:#00ADD0;}
</style>
<path class="st0" d="M1764.5,382.4c-6.9,7.8-26.2,10.7-56.9,10.7c-1.5,0-3,0-4.6,0c1,15.1,3.6,28.8,6,41.1
	c4.6,23.7,8.2,42.5-7.8,47.5c-1.5,0.4-3.1,0.8-4.9,1.2l27.1,234.7c0.5,4.7-1.1,12.4-15.7,16.3v2.7c12.2,5.7,27.8,25.7,27.9,25.9
	c10.9,14.3,14.9,25.7,12,35.1c-2.4,7.6-9.1,13.1-19.9,16.5c-2.4,0.7-4.9,1.1-7.5,1.1c-22,0-47-27-59.1-40c-1.7-1.9-3.1-3.3-4.2-4.4
	c-10.7-10.7-1-33.5,0.1-36.1l1.1-2.5c-5.9-2.2-10.1-5.3-10.5-9.7l-0.2-2.2c-11.2-96.8-22.5-146.3-30-170.9
	c-6.9-22.8-11.4-25.5-12.2-25.8c-0.7,0.3-5.3,3-12.2,25.8c-7.4,24.6-18.6,74.1-30,170.9l-0.2,2.2c-0.5,4.5-4.7,7.6-10.6,9.7l1.1,2.5
	c1.1,2.6,10.8,25.4,0.1,36.1c-1,1-2.4,2.5-4.2,4.4c-12,13-37.2,40-59,40l0,0c-2.6,0-5.1-0.4-7.5-1.1c-10.8-3.4-17.5-9-19.9-16.5
	c-2.9-9.4,0.9-20.8,12-35.1c0.2-0.2,15.8-20.2,27.9-25.9V734c-14.7-4-16.2-11.7-15.7-16.3l27.2-236.3c-4.1-0.6-7.5-1.4-10.1-2.1
	c-13.8-4.3-8.3-30.4-1.5-63.5c1.7-8.1,3.3-15.8,4.6-22.8c-13.8,4.5-25.7,6.8-35.5,6.8c-10.1,0-18.1-2.4-23.8-7.2
	c-8.2-6.9-12.8-18.5-13.4-34.7c-2.1-47.5,30-124.1,43.2-137.1c10.9-10.9,43.2-21.9,58.6-27.2c1.8-0.6,3.2-1.1,4.4-1.6l2.3-4.7
	c1.1-22-9.2-41.3-18.2-58.4c-11.2-21.1-21.9-41-7.8-60.7c4.7-6.6,9.8-9.3,15.2-8.1c4.1,0.9,7.3,4.1,10,8.3c0.3,0.2,0.6,0.4,0.9,0.5
	c0.8-9.2,4-24.1,15.1-36.1c10.9-11.7,26.7-17.6,47-17.6c20.4,0,36.2,5.9,47,17.6c11.1,12,14.3,27,15.1,36.1c0.4-0.2,0.7-0.4,1.1-0.7
	l2.8,4.5c3.2,1.2,6,3.5,8.2,6.8c5.8,8.5,5.8,21.5,0.1,30.1c-2,2.9-5.7,7-12.1,8.5c-0.2,27.8-14.6,43.2-26,55.5
	c-0.1,0.1-0.1,0.1-0.2,0.2c8.2,0.9,13.8,2.8,17.8,5c2.9,0.4,5.5,2.3,6.8,4.9l4.2,8.6c2.3,0.5,5.1,1,7.9,1.6
	c16.5,3.2,39.1,7.5,48.9,17.2C1744.2,228.8,1795.8,346.5,1764.5,382.4z M1648.2,185.4c-2-0.5-4.5-1-7.4-1.4c1,3,2.6,4.4,3.6,5.1
	L1648.2,185.4z M1615.5,190.5c-1.2,0-2.6,0-4.1,0c-1.8,0-3.9-0.1-6.1-0.1s-4.4,0-6.1,0.1c-1.5,0-2.8,0-4.1,0
	c-6.5,0-10.8-0.6-15.6-4.9c-1.5,4.8-4,8.2-6.5,10.6l15.9,16.1c1,0.9,1.8,2.1,2.2,3.4c5-1.7,10.9-2.1,14.8-2.1c2.8,0,5.6,0.2,8,0.5
	c2,0.3,3.9,0.8,5.6,1.7c0.3-1.4,1.1-2.6,2.2-3.5l15.8-16c-2.5-2-5.1-5.3-6.6-10.6C1626.2,189.8,1621.9,190.5,1615.5,190.5z
	 M1569.5,184c-2.8,0.3-5.1,0.8-7.1,1.4l3.6,3.7C1567.2,188,1568.5,186.3,1569.5,184z M1671.5,85.3c-1.7-2.5-3.7-3.6-6.3-3.5
	c-3.3,1.7-6.6,3-9.7,4.1c-0.4,14.4-6.3,30.3-22,30.3c-16.3,0-24.7-14.3-25.8-25.3c-0.8,0-1.7,0-2.5,0s-1.7,0-2.4,0
	c-1.1,11-9.5,25.3-25.8,25.3c-15.7,0-21.5-16-22-30.3c-2.1-0.7-4.3-1.6-6.5-2.6c1.8,5.6,2.8,10.7,3.3,13.6l-9.7,1.8
	c-0.8-4.4-2-9-3.4-13.2c-3.3,5.2-3.3,13.7,0,18.8c2.8,4.3,7.6,5.7,14.2,4.4l2,9.7c-0.8,0.2-1.6,0.3-2.3,0.4
	c0.4,23.6,12.6,36.7,23.4,48.4c2.6,2.8,5.1,5.5,7.3,8.2c4.3,5.3,5.6,5.2,15.4,5.1c1.9,0,4-0.1,6.3-0.1c2.4,0,4.5,0,6.3,0.1
	c9.9,0.2,11.1,0.2,15.4-5.1c2.2-2.7,4.7-5.4,7.4-8.2c10.8-11.7,23-24.8,23.4-48.4c-0.7-0.1-1.6-0.2-2.3-0.4l2-9.7
	c6.6,1.4,11.2-0.2,14.2-4.4C1675,99.3,1674.9,90.5,1671.5,85.3z M1552.6,74.4c16,7.2,30.4,7,45.5,6.8c2.4,0,4.8-0.1,7.2-0.1
	c2.4,0,4.8,0,7.2,0.1c15,0.2,29.4,0.3,45.5-6.8c-0.1-6.1-1.6-22.6-12.8-34.5c-9-9.6-22.4-14.4-39.9-14.4s-30.9,4.9-39.9,14.5
	C1554.2,51.9,1552.7,68.3,1552.6,74.4z M1552.7,178.5c3.9-1.9,9.1-3.5,16.3-4.3c-0.1-0.1-0.1-0.1-0.2-0.2
	c-11.6-12.4-25.8-27.7-26-55.5c-6.3-1.6-10.2-5.6-12.1-8.5c-5.7-8.5-5.6-21.4,0.1-30.1c1.1-1.7,2.5-3.1,3.9-4.3
	c-1.7-3.1-3.3-5.2-4.8-5.5c-0.8-0.2-2.7,1-5,4.3c-10,13.9-3.3,28.2,8.5,50.3C1541.9,140.4,1551.2,158,1552.7,178.5z M1629.2,237.1
	c-2.2,5.3-10,10.1-17.6,12.1l5.4,13.5c4.6-10.9,10.1-20,12.9-24.3L1629.2,237.1z M1549.1,197.8l21.5,38.1l10-18.1l-27.3-27.7
	c-0.6,0.6-0.7,1.1-0.7,1.1c0.1-0.2,0.1-0.3,0.1-0.3l-0.3-0.1L1549.1,197.8L1549.1,197.8z M1597.2,248.8c-7.4-3.1-11.3-5.9-14.4-14.9
	l-1.6,2.8c2.1,3.6,6.1,11,10.1,20L1597.2,248.8z M1673.5,320.4c4.1,0.2,8,0.6,12.1,1.2c-0.7-5.9-2.9-13.9-5.3-21.5l-8.2,3.1
	L1673.5,320.4z M1659,235.2c3.1-1.4,12.7-6.5,17.3-9.5c-3.2-5.4-6.7-12.2-9.3-17.8l-27.2,48l-4.3-7.8c-5.1,8.6-13.1,24-15.5,38.8
	c5.7-0.3,11.2-0.3,16.5,0c5-6,13.6-12.4,22.9-18.8c1-0.7,2.2-1.6,3.1-2.2c-0.6-2.1-1.6-5.3-2.3-7.8
	C1655,241.4,1653.9,237.4,1659,235.2z M1658,191.3c0,0-0.2-0.4-0.7-1.1l-27.3,27.7l10,18.1l21.5-38.2l-3.3-6.9l-0.3,0.1
	C1658,191,1658,191.1,1658,191.3z M1661.8,300.7l-13.8,1.5l2.1,19.4c4.4-0.6,8.8-1.1,13.4-1.2L1661.8,300.7z M1575.7,246.9l-5.1,9.3
	l-27.2-48c-2.6,5.6-6,12.4-9.3,17.8c4.6,3,14.2,8.1,17.3,9.5c5.1,2.2,3.9,6.1-1.4,23c-0.7,2.5-1.8,5.7-2.3,7.8
	c0.9,0.6,2.1,1.5,3.1,2.2c12.3,8.6,23.4,17,26.5,24.7c4.5-0.9,9-1.8,13.4-2.5C1589.5,274.6,1581,256.7,1575.7,246.9z M1617.6,433.2
	c-1.5,14.5-3.3,25.7-5.8,34c8.7,4.4,23.4,7.4,41.2,8.2c17.6,0.9,36.2-0.4,45.3-3.2c7.3-2.3,5.3-14.6,1.1-36.1
	c-2.4-12.2-5.2-27.1-6.2-43.2c-20.5-0.5-45-1.9-73.2-3.9C1619.9,397.3,1619.2,415.3,1617.6,433.2z M1720,218.6
	c-7.6-7.6-30.3-11.9-43.8-14.5c-0.1,0-0.1,0-0.2,0c3.1,6.6,7.2,14.7,10.6,19.9c0.8,1.4,1.1,2.9,0.6,4.5
	c-1.4,4.5-14.8,11.4-21.1,14.6c0.8,3.3,2.5,8.8,3.6,12.6c3.3,10.6,3.6,12.1,3,14.2c-0.6,2-1.7,2.7-7.5,6.8
	c-3.7,2.6-12.8,9-18.4,14.4l0.2,1.8l23.8-2.6l0.3,3.1l5.9-2.3l0.5,1.2c-1.1-3.2-2.3-6.2-3.3-8.8l9.2-3.6
	c1.2,3.2,11.3,28.7,12.3,44.2c0.3,0.1,0.6,0.2,0.9,0.2l-0.8,3c0,0.8-0.1,1.7-0.2,2.4l-0.4-0.1l-1.1,4.1
	c-45.4-12.9-94,14.4-112.3,24.7c-1.4,0.7-2.5,1.5-3.5,2c-1.2,0.7-11.8,7.1-26.7,14.5c15.8,0.9,32.4,2.1,48.6,3.2
	c65.3,4.6,146.6,10.3,157.3-2C1782.5,346.8,1736.4,234.9,1720,218.6z M1668.2,734.9v0.4c3.9,2.1,10.3,4.9,17.1,4.9
	c4.5,0,8.4-1.2,12-3.6c0.2-0.1,0.3-0.2,0.5-0.3v-0.5c-3.3,0.4-7.3,0.6-11.6,0.6C1680.4,736.4,1674.1,736,1668.2,734.9z
	 M1525.1,750.1L1525.1,750.1c-6.2,0-12-1.7-17-5.1c-4.1,0.8-16.3,11.7-25.5,23.5c-8.6,11.2-12.2,20.3-10.3,26.1
	c1.4,4.3,5.9,7.7,13.4,10.1c1.4,0.4,2.9,0.6,4.5,0.6c17.6,0,41.6-25.8,51.9-36.8c1.8-2,3.3-3.5,4.4-4.6c3.6-3.6,2-12.9-0.2-19.8
	C1541.5,746.9,1533.7,750.1,1525.1,750.1z M1608.2,476.4c-3.3,6.3-7.3,9.4-12.2,9.4c-20.4,0-50.6-0.8-71.8-3.1L1497,718.8
	c-0.2,2,2.6,3.6,5,4.6c15.3,6.1,47,2.2,51.2-2.2l0.2-1.7c9-77.1,19.5-136.9,30.3-172.7c7-23,13.4-32.8,21.6-32.8s14.7,9.8,21.6,32.8
	c10.8,35.8,21.3,95.4,30.3,172.7l0.2,1.7c4.2,4.4,35.9,8.3,51.2,2.2c2.4-0.9,5.3-2.6,5-4.6l-27.2-234.3c-6.7,0.8-14.4,1.2-22.4,1.2
	C1644.2,485.7,1622,483.1,1608.2,476.4z M1512.8,735.8v0.5c0.2,0.1,0.3,0.2,0.5,0.3c3.4,2.5,7.5,3.6,12,3.6l0,0
	c6.8,0,13.1-2.8,17.1-4.9V735c-5.8,0.9-12.2,1.4-18,1.4C1520,736.4,1516.1,736.1,1512.8,735.8z M1685.2,750.1
	c-8.5,0-16.3-3.2-21.2-5.8c-2.2,6.9-3.9,16.2-0.2,19.8c1,1,2.6,2.7,4.4,4.6c10.3,11,34.2,36.8,51.9,36.8c1.6,0,3.1-0.2,4.5-0.6
	c7.6-2.4,12.1-5.8,13.4-10.1c1.9-5.9-1.8-15-10.3-26.1c-9.2-11.9-21.4-22.7-25.5-23.5C1697.2,748.4,1691.6,750.1,1685.2,750.1z
	 M1570.4,353.2l-0.1-0.2c1-0.4,3.5-1.9,6.3-3.4c11.9-6.7,35.7-20,63.7-26.1l-2.9-26.3c-35.1-2.6-83.5,11-112.8,19.3
	c-5.9,1.7-11,3.1-15.1,4.2l-2.4-9.6c3.9-0.9,9-2.4,14.8-4.1c6.3-1.8,13.5-3.9,21.3-5.8c-12.9-24.5-24.5-28.6-28.9-27.6
	c-3.3,0.7-3.7,4.9-3.7,7h-9.8c0-10.4,4.5-15,11.3-16.5c4.9-1.1,22-2.1,40.8,34.7c4.8-1.1,9.7-2.4,14.7-3.5
	c-3.7-5.6-17.4-15.3-22.3-18.6c-5.8-4.1-6.9-4.8-7.5-6.8c-0.7-2.1-0.3-3.5,3-14.2c1.1-3.6,2.8-9.3,3.6-12.6
	c-6.3-3-19.8-10-21.1-14.6c-0.4-1.6-0.2-3.1,0.6-4.5c3.3-5,7.2-12.6,10.2-18.8c-15.3,5.3-41.2,14.8-49.4,23
	c-10.5,10.4-42.3,83.4-40.3,129.7c0.6,13.2,4,22.5,9.9,27.5c10.4,8.6,34.6,5.7,68.2-8.1C1544.2,368,1563.7,357,1570.4,353.2z
	 M1607.8,432.2c1.8-17.9,2.2-36,2.3-43.7c-3.6-0.2-7.3-0.5-10.9-0.7c-22.6-1.6-45.9-3.2-66.8-4.3c-2,0.8-4.1,1.8-6.1,2.6
	c-2.8,1.1-5.6,2.3-8.3,3.2c-1.2,8.5-3.3,18.3-5.4,28.5c-2.8,13.2-5.6,26.9-6.6,37.3c-1.1,13.1,1.2,14.8,1.4,14.8
	c12.6,4,55.2,6,88.8,6C1596,476,1603.6,474.9,1607.8,432.2z M1605.2,143.2c12.4,0,18.7-12.9,20.5-20.6l-9.6-2.3
	c0,0.1-3.3,13-10.9,13s-10.9-12.9-10.9-13l-9.6,2.3C1586.5,130.2,1592.9,143.2,1605.2,143.2z M1581.2,156.4l6.2,7.6
	c4.6-3.7,7.9-5.1,17.7-5.1s13.1,1.4,17.7,5.1l6.2-7.6c-6.8-5.5-12.6-7.3-23.9-7.3C1593.9,149.3,1588.1,151,1581.2,156.4z
	 M1605.2,61.7c19,0,30,5.9,30.1,5.9l4.8-8.5c-0.5-0.3-13-7.3-34.9-7.3s-34.3,7-34.9,7.3l4.9,8.5
	C1575.2,67.7,1585.9,61.7,1605.2,61.7z"/>
</svg>
