<?xml version="1.0" encoding="utf-8"?>
<!-- Generator: Adobe Illustrator 18.0.0, SVG Export Plug-In . SVG Version: 6.00 Build 0)  -->
<!DOCTYPE svg PUBLIC "-//W3C//DTD SVG 1.1//EN" "http://www.w3.org/Graphics/SVG/1.1/DTD/svg11.dtd">
<svg version="1.1" id="Layer_1" xmlns="http://www.w3.org/2000/svg" xmlns:xlink="http://www.w3.org/1999/xlink" x="0px" y="0px"
	 width="843.6px" height="800px" viewBox="699.3 -33 843.6 800" style="enable-background:new 699.3 -33 843.6 800;"
	 xml:space="preserve">
<style type="text/css">
	.st0{fill:#F0AB00;}
</style>
<g>
	<rect x="992.8" y="678.7" class="st0" width="9.1" height="47.5"/>
	<polygon class="st0" points="975.1,767 984.3,767 984.3,744.4 1098.6,744.4 1098.6,735.3 975.1,735.3 	"/>
	
		<rect x="833.7" y="194" transform="matrix(0.9634 -0.2679 0.2679 0.9634 -21.1418 242.1766)" class="st0" width="86.2" height="9.1"/>
	
		<rect x="816.7" y="119.2" transform="matrix(-0.9787 -0.2052 0.2052 -0.9787 1678.275 421.5372)" class="st0" width="88.6" height="9.1"/>
	
		<rect x="1148.3" y="-15.6" transform="matrix(-0.9431 -0.3326 0.3326 -0.9431 2235.5537 410.002)" class="st0" width="9.1" height="58.5"/>
	
		<rect x="1029.4" y="-7.5" transform="matrix(-0.9979 -6.542337e-02 6.542337e-02 -0.9979 2063.5698 134.2754)" class="st0" width="9.1" height="81.7"/>
	<path class="st0" d="M1541.5,253.4l-18.9-23.2c-1.4-1.7-3.5-2.4-5.6-1.9s-3.7,2.1-4.2,4.2l-1.8,7.6l-26.2,21.3l-45.7-2.9h-0.3
		c-4.1,0.3-7.7,2.9-9.3,6.6c-1.7,3.8-1,8.1,1.6,11.3l46.7,57.3c2.1,2.6,5.3,4.1,8.5,4.1c0.7,0,1.5-0.1,2.2-0.2
		c4.1-0.8,7.2-3.8,8.4-7.7l6.6-45.6l26.2-21.3l7.8-0.3c2.1-0.1,4.1-1.3,5-3.3C1543.2,257.3,1542.9,255,1541.5,253.4z M1488,327.4
		c-0.3,0.7-0.9,1-1.3,1.1s-1.2,0.1-1.8-0.6l-23.3-28.7l-7.2-8.9c1.9-0.7,4.1-1.8,6.2-3.2c1.7-1.1,2.7-1.7,3.4-2
		c0,0.1,0.1,0.2,0.1,0.2c1,2,2.5,5.1,6,7.4c1.7,1.1,3.2,1.6,4.7,1.6c3.4,0,6.2-2.3,7.8-3.8c3.3-2.8,4.8-4.1,10.4,1.6L1488,327.4z
		 M1526.2,253.7l-31.4,25.6l-0.3,2.2c-8.9-5.6-14.8-0.6-17.9,2c-0.6,0.5-1.3,1.1-1.8,1.5c-1.3-0.9-1.8-2.2-2.6-3.6
		c-0.9-1.9-2.2-4.6-5.5-5.5c-3.4-0.9-7,0.8-11.3,3.8c-4.4,3-6.6,2.9-7.4,2.7c-0.2,0-0.3-0.1-0.5-0.2l-9.3-11.5
		c-0.6-0.7-0.5-1.5-0.3-1.9s0.6-0.9,1.3-1.1l48.5,3l31.4-25.6l0.8-3.7l5,6.1l0,0l5,6.1L1526.2,253.7z"/>
	<path class="st0" d="M937.7,100.8c2.4,4.7,7.4,7.7,12.8,7.7l0,0c1.9,0,3.9-0.4,5.6-1.2l17.1-7.5c6.8-3,10.2-11.1,7.6-18.1
		L940.4-24.4c-1.9-5.2-6.8-8.6-12.4-8.6c-1.8,0-3.7,0.4-5.4,1.1l-29.7,13.1c-3.4,1.5-5.9,4.2-7.2,7.7c-1.2,3.4-1,7.2,0.6,10.4
		L937.7,100.8z M894.5-8c0.4-1,1.2-1.9,2.2-2.4l29.7-13.1c0.6-0.3,1.1-0.4,1.8-0.4c1.7,0,3.1,1,3.8,2.7L972.2,85
		c0.9,2.4-0.3,5.4-2.7,6.5L952.4,99c-2.3,1-5.4-0.1-6.6-2.4L894.7-4.8C894.1-5.8,894.1-7,894.5-8z"/>
	<path class="st0" d="M969.7,113.1c-5.6,2.5-10,7-12.2,12.7c-2.2,5.7-2.1,12,0.4,17.6c3.7,8.4,12,13.7,21.1,13.7
		c3.2,0,6.4-0.6,9.3-1.9c11.6-5.2,17-18.7,11.8-30.4c-3.7-8.4-12-13.7-21.1-13.7C975.8,111.1,972.6,111.9,969.7,113.1z M991.7,128.6
		c3.1,7-0.1,15.2-7.1,18.4c-1.8,0.8-3.7,1.2-5.6,1.2c-5.5,0-10.5-3.2-12.7-8.3c-1.5-3.4-1.6-7.2-0.3-10.6c1.4-3.5,4-6.2,7.4-7.7
		c1.8-0.8,3.7-1.2,5.6-1.2C984.5,120.3,989.4,123.6,991.7,128.6z"/>
	
		<rect x="1012.9" y="709.7" transform="matrix(-0.8476 0.5307 -0.5307 -0.8476 2291.8242 770.2702)" class="st0" width="44.7" height="9.1"/>
	<path class="st0" d="M1166.9,129.8c3.3-0.3,6.9,1.3,10.7,4.7l6.2-6.7c-5.8-5.3-11.7-7.7-17.7-7.1c-8.4,0.7-13.3,7-13.8,7.7l7.3,5.5
		C1159.4,134,1162.3,130.3,1166.9,129.8z"/>
	<path class="st0" d="M1017.2,416.7c-0.5,0-0.9,0-1.5,0.1s-1.4,0.2-2.1,0.2c-11.6,0-34.8-10.8-42.7-15l-6.9-3.7l0.3,7.8
		c0,0.6,1.6,51.3,0,67.7c-0.4,3.9,0.7,7.4,3.1,10.3c6.9,8.2,23.7,9.4,37.2,10.4c4.4,0.3,8.5,0.6,11.1,1.1c0.5,0.1,0.9,0.1,1.5,0.1
		c12.9,0,13.9-31.6,13.9-41.3c0-9.2-0.8-17.8-2.4-24C1026.4,421.4,1022.6,416.7,1017.2,416.7z M1016.7,486.5
		c-3-0.6-6.9-0.8-11.4-1.1c-10.5-0.7-26.4-1.8-30.8-7.2c-0.8-1-1.1-2-1-3.5c1.3-13.2,0.6-46.2,0.3-61.3c10,4.7,28.3,12.6,40,12.6
		c1.2,0,2.4-0.1,3.3-0.3c1.4,1.2,4.2,7.9,4.8,22.5C1022.6,467.6,1019.3,483.6,1016.7,486.5z"/>
	<path class="st0" d="M1315.3,245.6l6.1,6.8c0.5-0.4,45.5-39.3,106.9-17.2l3.1-8.6C1364.7,202.7,1317.3,243.9,1315.3,245.6z"/>
	<path class="st0" d="M1340.1,267.7l6.4,6.6c0.3-0.3,25.8-24.7,60.8-11.9l3.1-8.6C1370.1,239,1341.3,266.5,1340.1,267.7z"/>
	<path class="st0" d="M1333.2,357.3c-0.5-3.3-2.4-6-5.4-7.3c2.9-4.2,4-8.3,3.1-12.1c-0.7-3.3-3.1-5.9-6.3-6.9
		c-3.9-1.2-8.2,0.2-11.9,3.8c-4.5,4.3-18.8,7.7-29.5,9.1c-0.3-3,1.6-6.1,4.7-10.4c2.7-3.8,5.5-7.7,4.3-12.2
		c-0.7-2.8-2.8-4.9-6.2-6.6c-14.9-6.9-23.9,12.1-27.8,20.2c-1.9,4.2-4.3,6.6-7.1,7.4c-3.3,0.9-6.6-0.6-7.6-1.1l0.5-5.8l-11-1.7
		l1.1-6.1l-5.4-0.2c-0.6,0-32.2-0.9-62.6-4.8l28.6-3.2l-0.6-5.5l15-2l-0.6-3.2c4.7-2.4,10.7-4.6,13.8-3.8c0.8,0.2,1.2,0.6,1.5,1.1
		c4.7,8.9,12.3,11.8,21,11.8c8.6,0,18.5-2.8,28.1-5.5c2.5-0.7,5.1-1.5,7.7-2.1c5.7-0.7,15.2-4.2,16.1-12.9c0.1-1.2,0.5-4.2-0.9-6.7
		c2.8-2.9,3.5-5.8,3.7-7.5c0.5-4.2-1.4-8.1-4.7-10.5c1.8-2.8,2.3-5.2,2.2-7.1c-0.2-3.7-2.6-6.7-6.3-8.1c-1-0.4-2-0.6-3.1-0.7
		c0.4-1.8,0.3-3.3,0-4.4c-0.8-3.9-3.9-6.7-8-7.7c-4.8-1.1-11.8,0.4-17.4,7.6c-4.2,5.4-12,8.6-17.1,10.1c0.3-1.6,0.6-3.2,1.1-5
		c1.3-5.4,2.6-10.4,0-14.5c-1.4-2.3-3.8-3.8-6.9-4.4c-13.7-3-17.6,9.2-20.9,24.3c-2.3,10.5-11.5,11.3-16.2,11.1l-1.1-6l-12.1,1.8
		l-0.6-4.6l-83.4,8.2c-1.8-5.4-5.3-11.5-10.2-18.8c2.5-3.3,5.9-5.4,8.9-7.4c3.8-2.4,7.8-4.9,7.8-9.5c0.1-4.8-4.2-8.9-10.8-13.5
		c-1-0.7-2.5-2.4-4.3-4.8c2.2-1.8,5.4-3.9,8.2-4c1.7,2,4,4.2,7.4,6.6c6.1,4.2,11.7,5.8,16.7,5.8c5.9,0,10.8-2.3,14.2-5.5l2.1-1.9
		l-0.8-2.8c-1.8-5.9-4.9-10.1-8.1-13.2c1.7,0.7,3.4,1.5,5.1,2.2c7.2,3.3,14,6.4,19.7,3.8c2.3-1,4.1-2.8,5.3-5.3
		c1,0.2,1.9,0.3,2.9,0.3c2.1,0,3.9-0.6,5.4-1.7c4.5-3.2,4.5-9.6,3.3-16.9c11.3-2.6,19.7-12.7,19.7-24.7c0-5.5-1.8-10.7-4.8-14.9
		c4.2-13.2,10.8-44.8-17.1-63.1c-19.4-12.6-37.1-16.5-52.8-11.5c-18.5,5.8-28.3,22.2-31.6,28.9c-3.3-1-7.5-0.6-11.8,1.3
		c-8.4,3.7-17.3,13.3-17.3,28.9c0,16,8.5,22.5,15,25.8c-3.7,4.6-8.6,8.4-12.5,11c-1.9-3.3-3.7-6.5-5.4-9.4c-0.6-1.1-1-1.8-1.5-2.5
		c-4.5-5.3-20.9-6.1-28.9,0.1c-3.1,2.4-6.9,7.3-5.1,15.8c-9.3,6.6-32.1,33.6-67,75.2c-16.3,19.6-31.8,38-41.3,48.4
		c-13.8,15-33.8,61.4-53.1,106.2c-14,32.5-33.1,76.9-39.7,81c-3,0.4-5.2,2.2-6.2,5.2c-1.3,3.5-0.5,9.4,1.7,16.5
		c-11.6,2.3-53.8,10.9-67.3,14.6c-4.3,1.2-5.4,6.2-5.3,11.3l-3.2,1.5c0.5-1.4,0.7-2.2,0.7-2.2c1.4-3.5,0.6-5.9-0.4-7.3
		c-2.3-3.4-6.9-3.5-8.4-3.5c-4.5,0-10.6,1.3-16.4,2.6c-4.4,0.9-11.5,1.8-11.5,1.8c-1.8,0-5.2,1-6.4,6.7c-0.5,2.2-0.6,5.3-0.6,9.1
		c0,13,2.7,35.9,6.6,57.1c1.9,10.6,4.1,19.6,6,26.1c2.6,8.6,5.3,13.9,10.1,13.9c16.1,0,26.4-19.3,30.4-35.9c2.3-9.7,3-20.8-0.6-27.5
		l3.4-2.5c2.3,4.2,5,7.2,8.2,7.2l0,0c9.7,0,65-10.1,84.4-13.7c4.3,6.6,8.3,11.8,11.1,14.7c7.7,7.8,21.8,18.7,38.7,26.3
		c-3.3,12.7-13.6,52.7-16.4,65.9c-0.9,4.2,3,7.5,7.4,9.8l-0.2,3.6c-0.6-0.6-1.2-1.2-1.6-1.8c-2.1-2.5-4.4-3-5.9-3
		c-7.1,0-9.8,9.6-13.1,21.9c-1.2,4.4-2.5,9-3.5,10.9s-0.9,4,0.2,5.9c6.6,11.2,82.8,36.1,99.1,36.1c1.5,0,5.9,0,7.8-3.5
		c3.9-7.4,2.7-16.7-3.5-26.9c-9.3-15.3-27.4-28.8-38.7-28.8c-0.1,0-0.1,0-0.2,0l-0.6-3.8c0.4,0,0.8,0,1.2,0c5.3,0,8.2-1.3,9.6-4.1
		c5.1-9.7,17.3-65,19.4-74.5c31.4-2.5,78.6-9,85.8-22c6.2-11.1,7.7-60.8,8.8-119.7c0.2-7.6,0.3-14.6,0.5-20.7
		c0.9-36.7,6.5-82,10.5-94.6l22.6,17l136.2,17.5l1.8-10.1l15.5,2l0.6-7.7c4.6,0.6,12.6,2.4,16.7,8c8.2,11.5,16.4,13.9,23.7,13.9
		c2.8,0,5.4-0.4,7.8-0.6c1.2-0.2,2.5-0.3,3.8-0.5l1.6-0.2c10.1-0.9,19.7-1.8,31.5-10.2c5.4-3.9,6-11.6,3.2-16.1c0,0,0-0.1-0.1-0.1
		C1332.2,365.1,1333.7,361.1,1333.2,357.3z M1210.4,282c8.9-2.1,14.9-8.3,17-17.4c4.2-18.6,6.9-18,10.1-17.3
		c0.8,0.2,1.1,0.4,1.1,0.4c0.5,1-0.6,5-1.1,7.5c-2.1,8.7-5.7,23.2,9.7,33.6l5.2-7.6c-4.2-2.9-6.4-5.9-7.2-9.2
		c5.6-1.5,17.8-5.5,24.4-14.1c2.8-3.6,6.1-4.7,8.2-4.2c0.5,0.1,1,0.4,1.1,0.7c0.2,0.6-3,5.1-6.4,8.4c-7.6,7.3-13.7,8.3-13.7,8.3
		l0.6,4.5l-0.5-4.5l0.9,9.1c0.9-0.1,9.3-1.2,19.2-10.8c2.3-2.2,5.2-3.5,7.5-3.4c1.1,0.1,1.7,0.4,1.7,0.4c0.1,0.5-0.7,2.4-4.3,5.1
		c-2.1,0.7-4.2,2-6.3,4.1c-7.4,7.2-17.9,7-18,7l-0.2,4.6l-0.2,4.6c0.6,0,14,0.4,24.2-9.1c1.7-0.8,3-1.8,4.3-2.6
		c0.6-0.1,1.2,0,1.7,0.3c0.9,0.5,1.5,1.4,1.3,2.3c-0.2,1.8-5.3,5.2-9.5,6.6c-2.5,0.7-8.7,2.9-12.8,2.3l-1.2,9
		c6.3,0.8,12.2-1.1,17-2.7c1.2-0.4,2.8-0.9,3.9-1.2c0,0.1,0,0.2,0,0.3c-0.4,3.2-14.5,6.4-17.1,7.1c-20.3,5.7-33,8.8-38.7-1.8
		c-1.6-2.9-4-4.8-7.2-5.6c-5.6-1.5-12.7,0.9-17.9,3.3l-3-16.7C1205.8,282.7,1208.1,282.5,1210.4,282z M1193.8,278l4.8,26.2l-5.4,0.8
		l-3-26.4L1193.8,278z M743.3,598.3c-3.3,13.7-11.1,27.4-20,28.7c-6.5-10.6-17.3-81-14.6-94.5c3-0.3,6.7-1.1,10.9-2
		c5.1-1.1,10.8-2.3,14.4-2.4c-2.7,7.8-11.4,37.7,8.9,48.1C744.6,577.3,746.3,585.4,743.3,598.3z M744.7,566.7
		c-4.5-3.6-6.5-10.2-5.5-19.7c0.1-1.3,0.3-2.5,0.5-3.7l6.9-3.1c0.6,3.4,2.1,13,5,21.6L744.7,566.7z M1105.9,287.8
		c0.7-1.8,1-3.6,1-5.6l73.5-7.3l4.2,36.7l-50.1,5.6l0,0c-6.7-1.7-12.5-3.6-16.6-5.9c-5.4-2.9-11.2-8.8-17.3-17.4
		C1102.7,292.6,1104.7,290.7,1105.9,287.8z M1102.2,237c-0.7,0.6-2.1,1.5-3.2,2.2c-2.8,1.8-6.2,3.9-9.2,7.1
		c-7.7-13.3-14.1-32.8-19.3-50.1c9.7,15.9,20.1,31.6,25.2,35.2C1099.9,234.4,1101.5,236.1,1102.2,237z M1172,178.2
		c-8.9,0-16.2-7.3-16.2-16.2s7.3-16.2,16.2-16.2c3.8,0,7.3,1.3,10.1,3.5l0,0l0.2,0.1c3.7,3,6,7.5,6,12.5
		C1188.3,170.9,1181,178.2,1172,178.2z M1125.6,81.2c12.9-4.1,28-0.6,44.9,10.5c12.1,7.8,17.7,19.7,16.9,35.3
		c-0.3,4.9-1.2,9.5-2.2,13.2c-3.9-2.3-8.3-3.7-13.2-3.7c-11,0-20.4,7-23.9,16.9c-1.9,0.2-3.9,0.4-5.6,0.4c2.2-5.4,2.4-13.2,0.6-23.6
		c-1.6-8.9-15.1-14.4-34-21c-3-1.1-6.8-2.4-9.7-3.5C1101.9,100.3,1110.3,86,1125.6,81.2z M1071.2,131.5c0-12.4,7.2-17.9,10.2-19.7
		c3.8-2.2,6.6-2,7-1.8c2.7,2.4,8.1,4.4,17.5,7.7c8.2,2.9,27.3,9.6,28,14c1.7,9.7,1.4,17.1-0.7,19.8c-0.5,0.6-1,0.9-1.8,1
		c-0.4,0-0.7,0-1.1-0.1c-0.3-0.1-0.6-0.2-0.9-0.3c-5.3-1.7-15.4-9.1-23.8-16.7l0.4-0.5c-5.5-4.2-11.4-4.3-16.2-0.6
		c-4.2,3.2-6.8,9.3-7.3,15.3C1076.9,147.3,1071.2,143.4,1071.2,131.5z M1085.2,161.8c2.3,3.1,5.7,4.9,9.8,4.9c0.7,0,1.5-0.1,2.2-0.2
		l-1.3-9c-2.3,0.4-3.1-0.5-3.7-1.8c-1.7-4,0-11.3,3.1-13.8c0.5-0.4,1.3-1,2.8-0.6c0.5,0.4,0.9,0.8,1.4,1.3l-0.9,0.7
		c0.6,0.9,15.2,19.8,43,19.8c1.7,0,3.3-0.1,5-0.2c0.4,12.5,9.8,22.7,21.9,24.4c1,5.8,0.8,8,0.6,8.9c-1,0-4.7-0.4-15.5-7l-4.8,7.8
		c3.2,1.9,6.1,3.6,8.7,4.8c-0.1,0.1-0.2,0.1-0.2,0.2c-1.9,0.8-7.9-1.8-12.3-3.8c-8.7-4-18.5-8.5-26.2-2.6c-1.5,1.1-2.2,2.8-2,4.5
		c0.3,3,2.7,4.2,5.1,5.4c3.5,1.8,9.2,4.8,12.5,11.7c-3.2,1.8-8.9,2.7-17.1-2.9c-5.4-3.7-6.6-6.3-8.1-9.5c-1.4-3-3-6.6-7.6-10.5
		l-6,6.9c2.4,2,3.5,3.8,4.4,5.6c-3.5,1.1-6.6,3.1-8.9,4.9c-6.4-9.4-14.5-22.7-22-35.3C1074.1,173,1080.5,168,1085.2,161.8z
		 M764.3,569.3c-4.3-5.4-10.9-34-9.6-41.3c15.1-4,57.3-12.5,66.3-14.4c5.3,13.6,13.7,29.5,21.6,42.6
		C817.8,560.8,774.5,568.6,764.3,569.3z M929,704.1c7.2,0,22.9,11.2,30.8,24.4c2.3,3.9,5.7,10.9,3.8,16.4c-0.1,0-0.2,0-0.3,0
		c-17.2,0-80.2-22.5-90.2-30.4c1.1-2.8,2.1-6.4,3.2-10.5c1.1-4,3-10.5,4.5-13.7c4.3,4.5,18.8,18.5,33.7,18.5c4.8,0,9.1-1.4,13-4.2
		C927.7,704.3,928.1,704.1,929,704.1z M896.9,692l0.4-7.5c6.6,2.3,14.7,4.4,21.5,5.6l1.2,8.2c-1.7,0.7-3.4,1.1-5.4,1.1
		C908.7,699.4,902.2,696,896.9,692z M931.4,682c-6.8,1.4-35.2-6-41.1-10.6c3.1-13.8,12.3-49.6,15.7-62.8c9.1,3.2,18.8,5.4,28.6,5.4
		c3.3,0,8.3-0.2,14.3-0.6C943.5,637.9,935,673.4,931.4,682z M1215.4,380.1L1090.2,364l-47.2-35.4l-5.5,7.3l18.9,14.2
		c-2,4.7-4.4,14.5-7.1,35.7c-2.6,20.7-4.5,45.3-5,64.4c-0.2,6.1-0.3,13.1-0.5,20.7c-0.7,36.8-2,105.4-7.7,115.4
		c-5.3,9.3-68.1,18.5-101.7,18.5c-25.4,0-53.8-16.8-69.4-32.4c-14.1-14.4-42.1-70.2-40.2-80.4c8.5-2,17.9-21.4,45.9-86.3
		c18.2-42.1,38.7-89.8,51.5-103.6c9.7-10.5,25.2-29.1,41.6-48.7c22.9-27.3,53.4-63.8,63.5-72.2c0.8,1.5,1.8,3,2.9,4.6l7.6-5.2
		c-3-4.5-7.6-12.5-3.8-16.2c4.1-4,14.2-3.1,16.8-1.8c0.1,0.2,0.3,0.5,0.4,0.6c1.3,3,3.6,11.3,5.7,18.8c6.4,22.7,16.1,56.9,28.9,75
		c13.1,18.5,12.5,25.3,11.7,27.3c-0.3,0.6-0.7,1.3-1.8,1.9c-3.9-6.2-7.8-13.4-11.8-21.6c-9.6-19.4-16-37.4-16.1-37.6l-8.6,3
		c1.1,3,26.7,74.1,54.6,89.2c23.8,12.8,90.2,16.4,109.7,17.3L1215.4,380.1z M1231.8,372l-5.5-0.7l5.2-28.4l2.8,0.5L1231.8,372z
		 M1319.1,366.2c-5,3.7-18.2,5.8-25.2,5.8h-0.1v8.3h0.1c2.4,0,18.4-0.1,27.6-5.2c0,0.9-0.4,2.2-2.1,3.5c-8.7,6.5-16.1,6.6-25.8,7.6
		c0,0-4.3,0.5-5.6,0.6c-8.6,1.1-14.9,1.9-23-9.5c-6.1-8.6-17.3-11.1-23.3-11.8l1.2-14.5c2.8,0.9,6.6,1.6,10.8,0.4
		c5.4-1.6,9.9-5.7,13-12.3c9-18.9,13.5-16.9,15.6-15.9c0.6,0.3,0.9,0.5,1.1,0.6c-0.4,1-1.8,3-2.9,4.4c-4.1,5.7-10.8,14.5-2.3,25.5
		c0,0,31.7-3.4,40.9-12.3c1.7-1.6,2.8-1.7,2.9-1.7c0.4,0.6,0.3,4.1-4.9,8.8c-4.4,4.1-17.1,6.6-23.9,7.2l0.6,8.7
		c0,0,18.6,1.2,27.3-4.6c1.8-1.2,3-1.3,3-1.3C1324.3,358.9,1323.1,363.3,1319.1,366.2z"/>
</g>
</svg>
