<?xml version="1.0" encoding="utf-8"?>
<!-- Generator: Adobe Illustrator 18.0.0, SVG Export Plug-In . SVG Version: 6.00 Build 0)  -->
<!DOCTYPE svg PUBLIC "-//W3C//DTD SVG 1.1//EN" "http://www.w3.org/Graphics/SVG/1.1/DTD/svg11.dtd">
<svg version="1.1" id="Layer_1" xmlns="http://www.w3.org/2000/svg" xmlns:xlink="http://www.w3.org/1999/xlink" x="0px" y="0px"
	 width="1280px" height="532.7px" viewBox="-170.7 195.4 1280 532.7" style="enable-background:new -170.7 195.4 1280 532.7;"
	 xml:space="preserve">
<style type="text/css">
	.st0{fill:#C4D600;}
</style>
<path class="st0" d="M1047.6,195.5c-36.2-2-66.8,25.7-68.8,61.6c-0.6,10.5,1.4,20.7,5.4,29.8L794.2,494.5c-9-4.7-19.1-7.3-29.8-7.3
	c-4.2,0-8.4,0.4-12.6,1.2c-10.4,2.1-19.8,6.5-27.6,12.7l-82-44l-2.7,18.3l-18.4,4v23.9l78.4,41.9c-0.7,6.5-0.6,13.1,0.8,19.9
	c5.9,30.6,32.9,52.8,64,52.8c4.2,0,8.4-0.4,12.6-1.2c35.3-6.9,58.5-41.2,51.6-76.5c-0.5-2.4-1.1-4.7-1.8-6.9l193.9-211.4
	c6.2,2.4,12.7,3.8,19.7,4.2c1.3,0.1,2.5,0.1,3.7,0.1c34.6,0,63.2-27.1,65.1-61.6C1111.1,228.4,1083.5,197.5,1047.6,195.5z
	 M633.9,495.4v-6.1l17-3.6l1.3-9.1l62.5,33.6c-5.5,6.4-9.7,13.9-12.3,21.9L633.9,495.4z M774.5,604.1c-3.3,0.6-6.7,0.9-10.1,0.9
	c-25.1,0-46.8-17.9-51.6-42.6c-5.5-28.5,13.1-56.2,41.5-61.7c3.3-0.6,6.7-0.9,10.1-0.9c25.1,0,46.8,17.9,51.6,42.6
	C821.7,570.8,803,598.5,774.5,604.1z M821.2,520.3c-4.2-7.4-9.7-13.8-16.1-18.9l185.6-203c4.9,6.9,11,12.7,18.1,17.3L821.2,520.3z
	 M1096.4,263.6c-1.6,28.9-26.3,51.2-55.5,49.6c-29-1.6-51.2-26.5-49.6-55.5c1.6-27.9,24.6-49.7,52.5-49.7c1,0,2,0,3,0.1
	C1075.8,209.8,1098.1,234.6,1096.4,263.6z M476,353.9c0-36-29.3-65.3-65.3-65.3s-65.3,29.3-65.3,65.3c0,10.6,2.5,20.6,7,29.4
	L174.3,601.4c-6.9-2.5-14.2-3.8-21.9-3.8c-6.6,0-12.9,0.9-18.8,2.8L-48.7,390c3.6-6.3,6.2-13.4,7.5-21c6.2-35.5-17.6-69.3-53.1-75.5
	c-3.7-0.6-7.5-0.9-11.2-0.9c-31.7,0-58.8,22.7-64.3,54.1c-6.2,35.5,17.6,69.3,53.1,75.5c3.7,0.6,7.5,0.9,11.2,0.9
	c5.9,0,11.7-0.8,17.3-2.3L94.5,632.5c-4.8,9.1-7.5,19.4-7.5,30.4c0,36,29.3,65.3,65.3,65.3s65.3-29.3,65.3-65.3
	c0-10-2.2-19.4-6.3-27.9l179.5-219c6.3,2,13,3.1,19.9,3.1c13.4,0,25.9-4,36.2-11l-0.2,0.5l75.6,40.8l-0.4-21.4h18.2v-25.6
	l-65.4-35.5C475.6,362.7,476,358.3,476,353.9z M-105.4,410.4c-3,0-6.1-0.2-9.1-0.8c-28.6-5-47.8-32.3-42.8-60.9
	c4.4-25.2,26.2-43.6,51.8-43.6c3,0,6.1,0.2,9.1,0.8c28.6,5,47.8,32.3,42.8,60.9C-58,392.1-79.8,410.4-105.4,410.4z M-75.7,415.9
	c7.4-3.8,14-8.9,19.5-15.3l177.4,204.9c-7.4,4-14,9.5-19.3,16L-75.7,415.9z M152.4,715.5c-29,0-52.6-23.6-52.6-52.6
	c0-29,23.6-52.6,52.6-52.6s52.6,23.6,52.6,52.6C205,691.9,181.3,715.5,152.4,715.5z M204.5,623.5c-5-6.6-11.2-12.3-18.4-16.5
	l173.6-212.5c5.2,6.6,11.7,12.1,19.1,16.3L204.5,623.5z M410.7,406.5c-29,0-52.6-23.6-52.6-52.6s23.6-52.6,52.6-52.6
	s52.6,23.6,52.6,52.6S439.8,406.5,410.7,406.5z M527.5,409.8v5.5h-18.5l0.2,12.7L457,399.8c5.9-5.9,10.6-12.9,13.8-20.7L527.5,409.8
	z"/>
</svg>
