<?xml version="1.0" encoding="utf-8"?>
<!-- Generator: Adobe Illustrator 18.0.0, SVG Export Plug-In . SVG Version: 6.00 Build 0)  -->
<!DOCTYPE svg PUBLIC "-//W3C//DTD SVG 1.1//EN" "http://www.w3.org/Graphics/SVG/1.1/DTD/svg11.dtd">
<svg version="1.1" id="Layer_1" xmlns="http://www.w3.org/2000/svg" xmlns:xlink="http://www.w3.org/1999/xlink" x="0px" y="0px"
	 width="432.3px" height="800px" viewBox="847.6 0 432.3 800" style="enable-background:new 847.6 0 432.3 800;"
	 xml:space="preserve">
<style type="text/css">
	.st0{fill:#830051;}
</style>
<g>
	<path class="st0" d="M1279.9,464.8c-0.4-4.5-1.3-8.6-2.8-12.6l2.6-2.6l-5.4-5.4l-4.3-4.3l-0.6,0.6c-1.5-1.5-3.2-2.8-4.9-3.7
		c-6-3.4-8.8-10.3-9.9-14.1l7.9-2.6l-1.1-4.1c-18.5-72.3-53.8-147.7-81.9-175.6c-5.1-5.1-12.2-9-22.3-12.4l0.6-2.6l-12.9-3.9
		c0.4-1.7,0.2-3.6-0.7-5.2l-4.5-9.6c-1.3-2.6-3.7-4.3-6.4-4.7c-3.7-2.1-9-3.9-16.9-4.7l0.2-0.2c10.9-11.8,24.4-26.2,24.7-52.5
		c6.4-1.3,10.3-4.9,12.4-7.5c5.4-6.9,6.4-17.4,2.4-25.7c-2.1-4.1-5.1-7.1-8.8-8.6c1.3-4.3,2.2-8.6,2.8-12.4c4.7-0.2,8.6-3.9,8.6-8.8
		V71.4c0-4.9-4.1-9.6-9-9.6h-3.7c-2.8-9.4-13.7-41.2-48.7-46.1l1.1-15.7h-16.5h-16.5l1.1,15.7c-34.8,4.9-45.7,36.7-48.5,46.1h-3.7
		c-4.9,0-9,4.7-9,9.6v10.3c0,4.7,3.9,8.6,8.6,8.8c0.6,3.6,1.5,8.1,2.8,12.4c-3.7,1.5-6.7,4.3-8.8,8.6c-3.9,8.2-2.8,18.7,2.4,25.7
		c2.1,2.6,5.8,6.2,12.4,7.5c0.4,26.2,13.9,40.8,24.7,52.5l0.2,0.2c-7.9,0.9-13.1,2.6-16.9,4.7c-2.8,0.4-5.2,2.1-6.4,4.7l-4.5,9.6
		c-0.9,1.9-1.1,4.1-0.6,6l-13.3,2.6l0.7,3c-4.5,1.9-16.1,6.7-21.7,12.2c-28.1,27.7-63.1,103.4-81.9,175.6l-0.7,3l-1.1-11.1l-29-13.1
		l-9.6,9.4l16.7,17l-0.2,4.7h-3.9l-17.2-17.2l-10.5,10.5l12.9,28.9l24.2,2.6l3.7,3.7c-1.1,3.4-1.9,6.9-2.1,10.9
		c-0.9,13.9,4.7,26.8,14.8,34.7c2.8,2.1,6.2,3,9.7,3c4.9,0,9.7-1.9,12.6-4.7c1.5-1.5,2.4-3.4,2.6-5.2l3.7,3.9l1.9,24.4l28.7,13.7
		l10.5-10.3l-16.9-17.6V503h4.7l16.7,17l9.6-9.4l-12.4-29.4l-22.7-3c4.1-4.7,4.5-12.9,1.3-24.9c-1.5-5.6-5.1-9.7-7.7-13.1
		c-3.2-3.7-4.3-5.6-4.1-7.3l9.2,3.2l1.5-4.3c20.4-57.5,37.5-102.7,53.4-110.5c3.9,16.3,3.4,53.4,2.4,71.6c-2.2,1.3-3.7,1.9-3.9,1.9
		l-3,1.1v31.5H982v41.2h16.9v247.2h11.2v10.1c-5.4,3.7-12.2,12-22.7,26c-1.5,2.1-2.8,3.7-3.9,5.2c-8.4,11.1-14.2,19.3-11.6,27.7
		c1.9,6,7.9,10.5,19.1,14.1c2.2,0.7,4.7,1.1,7.1,1.1l0,0c20.8,0,44.8-25.9,56.2-38.2c1.7-1.7,3-3.2,3.9-4.1
		c10.1-10.1,0.9-31.9-0.2-34.3l-1.3-3v-4.7h10.5l-0.2-4.9c0-0.6-0.9-47.6,0.6-95.4c2.8-86.7,11.6-97.4,13.5-98.7
		c1.9,1.3,10.7,12,13.5,98.7c1.5,47.8,0.6,95,0.6,95.6l-0.2,4.9h10.5v4.7l-1.3,2.8c-1.1,2.4-10.3,24.2-0.2,34.3
		c0.9,0.9,2.2,2.4,3.9,4.1c11.4,12.4,35.4,38,56.2,38c2.4,0,4.9-0.4,7.1-1.1c11.4-3.6,17.2-7.9,19.1-14.1
		c2.6-8.2-3.2-16.7-11.6-27.7c-1.1-1.5-2.4-3.4-3.9-5.2c-10.3-13.9-17.2-22.3-22.7-26v-9.9h11.2V468.2h15V427h-15v-31.3l-3-1.1
		c0,0-0.2,0-0.4-0.2c-0.9-16.7-1.7-54.5,2.8-69.9c13.1,0.7,26.2,38.4,42.5,85.4c2.4,6.9,4.9,14.2,7.7,21.7l1.5,4.3l10.7-3.7
		c0.4,1.9-0.6,3.6-4.1,7.9c-2.8,3.4-6.2,7.5-7.7,13.1c-3.4,12.4-2.8,21,1.9,25.7c0.6,0.6,1.3,1.1,2.1,1.5l-12.2,7.1l9.7,9.7
		l-24.7,24.7l-5.4,0.2l-10.9,10.9l5.2,5.2l6.6,6.6l10.9-10.9l-0.4-4.9l25.3-25.3l9.6,9.6l8.8-16.5l0.6-0.2c0.4,0.4,0.7,0.9,1.1,1.3
		c2.8,2.8,7.7,4.7,12.6,4.7c3.6,0,6.9-0.9,9.7-3C1275.2,491.4,1280.8,478.5,1279.9,464.8z M1140.5,229.8l6.2,1.9l-18.5,77.9
		l-10.1-2.6l13.5-61.3L1140.5,229.8z M1155.1,401.9V427h-76.8v-20.6h-63.7V427h-5.6v-25.1c7.5-3.7,26.2-15,26.2-34.3v-48.3l21.9-5.6
		l-0.2-0.9h25.1h25.1l-0.2,0.9l21.9,5.6v48.3C1128.9,387,1147.6,398.2,1155.1,401.9z M1024.1,445.7v-30h45v30H1024.1z M1063.4,455.1
		V472h-35.6v-16.9H1063.4z M1066.5,233.3l-13.9-14.1c3.2-1.7,6.2-4.7,8.1-9c3.4,1.9,6.9,2.2,11.6,2.2c1.1,0,2.4,0,3.9,0
		c1.7,0,3.7,0,5.8,0c2.1,0,4.1,0,5.8,0c1.3,0,2.6,0,3.9,0c4.7,0,8.1-0.4,11.4-2.2c1.7,4.5,4.7,7.5,7.7,9.4l-13.5,13.7
		c-1.5,1.3-2.4,3-2.4,5.1v1.1l6.9,12.6l-19.9,28.5l-19.1-30.9l5.6-10.1v-1.1C1068.9,236.3,1068,234.5,1066.5,233.3z M1081.7,297.6
		l25.5-36.3l7.7,13.9l0.9-1.7l-6.6,30H1082h-27.3l-6.7-30.4l1.1,2.1l8.8-16.1L1081.7,297.6z M1132.1,213.1h0.2l3.2,6.6l-20.4,36.3
		l-9.6-17.2l26-26.4c0.6,0.6,0.7,1.1,0.7,1.1C1132.1,213.1,1132.1,213.1,1132.1,213.1z M1122.7,207.9l-4.9,4.9
		c-2.1-0.7-4.9-2.4-6.2-6.6C1116.3,206.4,1120.1,206.9,1122.7,207.9z M1082.1,9.4h6.2l-3.2,35.6h-3h-3l-3.2-35.6
		C1075.9,9.4,1082.1,9.4,1082.1,9.4z M1014.7,80.6v-9.4h31.9v-9.4h-18.8c3-9.4,12.7-33,40.3-36.7l2.6,29.2h11.4h11.4l2.6-29.2
		c27.7,3.9,37.3,27.4,40.3,36.7h-18.6v9.4h31.9v9.4h-67.4H1014.7z M1140.5,89.9c-1.1,7.5-3,13.1-4.5,16.3c-0.4-1.5-0.6-3.4-0.7-4.9
		c-0.4-3.4-0.9-7.7-2.4-11.4C1132.8,89.9,1140.5,89.9,1140.5,89.9z M1031.2,89.9c-1.5,3.7-2.1,8.2-2.4,11.6c-0.2,1.3-0.4,3-0.7,4.5
		c-1.5-3.2-3.2-8.6-4.5-16.1H1031.2z M1032.1,144.5c0.7-0.2,1.5-0.2,2.2-0.4l-1.9-9.2c-4.7,0.9-10.9,0.9-14.6-3.7
		c-3.6-4.7-3.4-11.6-1.5-15.9c0.7-1.5,1.9-3.2,3.7-3.9c1.1,2.1,2.4,3.7,3.9,4.9c1.3,0.9,2.8,1.5,4.5,1.5c0.6,0,0.9,0,1.5-0.2
		c6.4-1.3,7.3-8.4,8.1-14.6c1.1-8.1,2.1-11.8,5.2-12.4v-0.6h39h39v0.6c3.2,0.6,4.1,4.5,5.2,12.6c0.7,6.2,1.7,13.3,8.1,14.6
		c0.6,0.2,0.9,0.2,1.5,0.2c1.5,0,3-0.6,4.5-1.5c1.5-1.1,2.8-2.8,3.9-4.9c1.9,0.7,3,2.4,3.7,3.9c2.1,4.3,2.2,11.2-1.5,15.9
		c-3.7,4.9-10.1,4.7-14.6,3.7l-1.9,9.2c0.7,0.2,1.5,0.2,2.2,0.4c-0.4,22.5-12,35-22.3,46.1c-2.4,2.6-4.9,5.2-6.9,7.9
		c-4.1,5.1-5.2,5.1-14.6,4.9c-1.7,0-3.7,0-6,0c-2.3,0-4.3,0-6,0c-9.4,0.2-10.7,0.2-14.6-4.9c-2.1-2.6-4.5-5.1-6.9-7.9
		C1044.1,179.6,1032.5,167,1032.1,144.5z M1052.4,206.2c-1.5,3.9-4.5,5.4-6.7,6l-4.3-4.3C1044.1,206.9,1047.7,206.4,1052.4,206.2z
		 M1031.8,212.9h0.2c0,0,0,0.2,0,0.4c0,0,0.2-0.4,0.7-1.1l26,26.4l-9.6,17.2l-20.3-36.3l0,0L1031.8,212.9z M1024.1,230.9l-0.2-0.6
		l8.2,14.6l13.9,62l-10.1,2.6l-18.4-77.4L1024.1,230.9z M911.7,423c-0.9,3-2.8,7.5-6.4,10.9l-1.3-1.3l-1.3-12.6L911.7,423z
		 M889.2,441.2l-22.3-2.2l-6.9-15.4l11.2,11.4l17,0.4l0.7-18l-8.6-8.8l12.4,5.6l2.4,22.9l2.6,2.8c-1.7,1.5-3.4,3.4-4.7,5.4
		L889.2,441.2z M966.4,489.5l5.2,12.4l-8.6-8.8l-18,0.2l-0.2,17l11.1,11.6l-15.2-7.3l-1.7-22.3l-17.4-17.6c0-2.2,0.4-4.3,1.1-6
		c0.4-0.9,0.7-1.5,1.1-2.1l19.7,20.2L966.4,489.5z M942.6,455.6c3.6,13.3,0.7,16.3,0.6,16.3c0,0-0.2,0.2-0.6,0.2
		c-0.6-0.7-1.7-2.8-2.2-4.1c-2.6-5.2-6.9-13.9-16.5-12c-4.5,0.9-8.1,4.1-9.9,9.2c-3,7.9-1.7,19.9,2.6,26.2c-0.6,0.4-1.9,1.1-3.6,1.3
		c-2.4,0.4-4.5,0-5.8-0.9c-7.9-6-12-15.7-11.2-26.6c0.6-9.2,4.9-17.2,10.7-20.6c8.4-4.7,12.4-13.3,14.1-18.7l10.3,3.6
		c-1.9,6.9,2.4,12.2,5.8,16.3C939,448.9,941.6,451.9,942.6,455.6z M1006.5,310.7c-20.4,2.6-35.6,35.8-63.1,113.5L913.6,414
		c18.4-69.7,51.7-140.8,78.1-167c3.2-3.2,10.7-6.7,17.4-9.6L1026,309l0,0v58.6c0,7.7-4.7,13.9-9.9,18.4c0.6-19.5,1.1-58.5-4.7-72.7
		l-1.3-3.4L1006.5,310.7z M992.2,458.8v-22.5h22.5V455h3.7v3.7L992.2,458.8L992.2,458.8z M1052.6,750.6c-1.1,1.1-2.4,2.6-4.1,4.3
		c-9.7,10.5-32.6,35-49.5,35c-1.5,0-3-0.2-4.3-0.6c-9.7-3-12.6-6-13.1-7.9c-1.3-3.9,4.1-11.2,10.1-19.1c1.1-1.5,2.6-3.4,4.1-5.4
		c4.5-6,16.1-21.4,20.8-24c4.7,3,9.9,4.7,15.6,4.7l0,0c8.1,0,15.6-3.4,20.2-5.8C1054.4,738.6,1055.9,747.2,1052.6,750.6z
		 M1020.3,724.2v-8.8h28.1v7.9c-3.7,2.1-9.9,5.2-16.3,5.2l0,0c-4.3,0-8.1-1.5-11.4-3.7C1020.7,724.6,1020.5,724.2,1020.3,724.2z
		 M1168.2,757c1.5,2.1,2.8,3.9,4.1,5.4c6,7.9,11.4,15.2,10.1,19.1c-0.6,1.9-3.4,4.9-13.1,7.9c-1.3,0.4-2.8,0.6-4.3,0.6
		c-16.9,0-39.7-24.5-49.5-35c-1.7-1.9-3.2-3.4-4.1-4.3c-3.4-3.4-1.9-12.4,0.2-18.9c4.7,2.4,12.2,5.6,20.2,5.6
		c5.8,0,11.1-1.5,15.6-4.5C1152.3,735.4,1163.7,751,1168.2,757z M1115.8,723.3v-7.9h28.1v8.8c-0.2,0.2-0.4,0.2-0.6,0.4
		c-3.4,2.2-7.1,3.6-11.4,3.6C1125.5,727.9,1119.3,725.3,1115.8,723.3z M1155.1,706h-49.6c0.2-12.7,0.6-49.3-0.6-86.7
		c-2.8-95.6-12.7-105.9-16.1-109c-2.6-2.6-5.2-3.2-6.9-3.2s-4.3,0.6-6.9,3.2c-3.2,3.4-13.1,13.5-16.1,109c-1.1,37.7-0.7,74-0.6,86.7
		h-49.3V468.2h9.4v13.1h54.3v-13.1h82.4V706z M1170.1,436.3v22.5h-97.4v-3.7h5.6v-18.7L1170.1,436.3L1170.1,436.3z M1221.5,424
		c-2.1-6-4.1-11.8-6-17.2c-10.1-29.2-18.2-52.3-26.2-68c-6-11.8-15.7-27-30-23l-2.2,0.6l-0.9,2.1c-6,14.8-5.2,53.2-4.7,70.4
		c-6.4-4.5-13.3-11.6-13.3-21.2v-58.6l0,0l16.9-71.6c8.2,2.8,14.1,5.6,18,9.4c26.4,26.2,59.8,97.6,78.1,167L1221.5,424z
		 M1242.4,485.8l-8.2,3.9l-4.3,8.1l-4.5-4.5l-3.7-3.7l7.9-4.7l8.6-18.5c0.9-0.7,1.7-1.1,2.6-0.9c1.3,0.2,2.2,1.3,3,3.4
		C1245.6,473.8,1244.7,482,1242.4,485.8z M1259.3,492c-1.3,0.9-3.6,1.3-5.8,0.9c-1.7-0.4-3-0.9-3.6-1.3c4.3-6.4,5.6-18.4,2.6-26.2
		c-1.9-5.1-5.4-8.2-9.9-9.2c-9.7-1.9-13.9,6.9-16.5,12c-0.7,1.3-1.7,3.4-2.2,4.1c-0.4,0-0.4,0-0.6-0.2c-0.2-0.2-3-3.2,0.6-16.3
		c0.9-3.7,3.6-6.7,6-9.7c3.6-4.3,7.9-9.7,5.6-16.9l10.3-3.6c1.7,5.2,5.6,14.2,14.2,19.1c5.8,3.4,10.1,11.4,10.7,20.6
		C1271.3,476.2,1267.2,486,1259.3,492z"/>
	<rect x="1046.6" y="331.5" class="st0" width="73.1" height="9.4"/>
	<path class="st0" d="M1105.1,141.9c11.6,0,21-9.4,21-21s-9.4-21-21-21s-21,9.4-21,21S1093.5,141.9,1105.1,141.9z M1105.1,109.6
		c6.4,0,11.6,5.2,11.6,11.6c0,6.4-5.2,11.6-11.6,11.6s-11.6-5.2-11.6-11.6C1093.5,114.8,1098.7,109.6,1105.1,109.6z"/>
	<path class="st0" d="M1079.8,121.2c0-11.6-9.4-21-21-21c-11.6,0-21,9.4-21,21s9.4,21,21,21C1070.4,141.9,1079.8,132.6,1079.8,121.2
		z M1047.5,121.2c0-6.4,5.2-11.6,11.6-11.6s11.6,5.2,11.6,11.6c0,6.4-5.2,11.6-11.6,11.6S1047.5,127.6,1047.5,121.2z"/>
	<path class="st0" d="M1084.5,176h-2.4h-2.4c-8.1,0-9.2,0-12.6-2.1l-5.1,7.9c5.2,3.4,8.6,3.6,15.6,3.6c0.6,0,1.3,0,1.9,0h2.4h2.4
		c0.7,0,1.3,0,1.9,0c6.9,0,10.3-0.2,15.6-3.6l-5.1-7.9C1093.7,176,1092.6,176,1084.5,176z"/>
	<path class="st0" d="M1055.9,168.9c1.5-2.8,13.5-2.2,21.5-2.1c1.3,0.4,3,0.7,4.7,0.7c1.7,0,3.2-0.2,4.7-0.7
		c8.1-0.4,20-0.9,21.5,2.1c1.9,3.6,8.8,5.2,5.6-6c-1.1-3.9-10.3-11.4-16.3-12c0.2-1.5,0.4-2.8,0.4-3.9h-9.4c0,0.2-0.2,11.4-6.6,11.4
		c-6.4,0-6.6-11.1-6.6-11.1l-4.7,0.6h-4.7c0,0,0.2,2.1,0.4,3.6c-6,0.6-15.2,7.5-16.3,11.6C1047.1,174.1,1054.1,172.5,1055.9,168.9z"
		/>
</g>
</svg>
