<?xml version="1.0" encoding="utf-8"?>
<!-- Generator: Adobe Illustrator 18.1.0, SVG Export Plug-In . SVG Version: 6.00 Build 0)  -->
<!DOCTYPE svg PUBLIC "-//W3C//DTD SVG 1.1//EN" "http://www.w3.org/Graphics/SVG/1.1/DTD/svg11.dtd">
<svg version="1.1" id="Layer_1" xmlns="http://www.w3.org/2000/svg" xmlns:xlink="http://www.w3.org/1999/xlink" x="0px" y="0px"
	 width="26.1px" height="23px" viewBox="-15.4 20.9 26.1 23" enable-background="new -15.4 20.9 26.1 23" xml:space="preserve">
<g opacity="0.4">
	<path fill="#848E9B" d="M7.6,43.9l-6.1-6.1c-1.7,1.3-3.7,2-5.8,2c-2.5,0-4.9-1-6.7-2.8c-1.8-1.8-2.8-4.2-2.8-6.7s1-4.9,2.8-6.7
		c1.8-1.8,4.2-2.8,6.7-2.8c2.5,0,4.9,1,6.7,2.8c1.8,1.8,2.8,4.2,2.8,6.7c0,2.1-0.7,4.2-2,5.8l6.1,6.1L7.6,43.9z M-4.3,37.5
		c1.9,0,3.7-0.7,5.1-2.1c1.3-1.3,2.1-3.1,2.1-5.1s-0.7-3.7-2.1-5.1c-1.4-1.3-3.2-2.1-5.1-2.1s-3.7,0.7-5.1,2.1
		c-1.4,1.4-2.1,3.2-2.1,5.1s0.7,3.7,2.1,5.1C-8.1,36.8-6.3,37.5-4.3,37.5z"/>
</g>
</svg>
