<?xml version="1.0" encoding="utf-8"?>
<!-- Generator: Adobe Illustrator 18.1.0, SVG Export Plug-In . SVG Version: 6.00 Build 0)  -->
<!DOCTYPE svg PUBLIC "-//W3C//DTD SVG 1.1//EN" "http://www.w3.org/Graphics/SVG/1.1/DTD/svg11.dtd">
<svg version="1.1" id="Layer_1" xmlns="http://www.w3.org/2000/svg" xmlns:xlink="http://www.w3.org/1999/xlink" x="0px" y="0px"
	 width="26px" height="23px" viewBox="-10.7 10 26 23" enable-background="new -10.7 10 26 23" xml:space="preserve">
<g opacity="0.4" enable-background="new    ">
	<path fill="#848E9B" d="M9.9,12.6v17.7c0,1.5-1.2,2.7-2.7,2.7h-9.9c-1.5,0-2.7-1.2-2.7-2.7V12.6c0-1.5,1.2-2.7,2.7-2.7h9.9
		C8.7,10,9.9,11.2,9.9,12.6z M-3.3,12.6v2.3H7.8v-2.3c0-0.3-0.3-0.6-0.6-0.6h-9.9C-3,12-3.3,12.3-3.3,12.6z M-3.3,17v8.2H7.8V17
		H-3.3z M7.8,30.3v-3.1H-3.3v3.1c0,0.3,0.3,0.6,0.6,0.6h9.9C7.5,30.9,7.8,30.6,7.8,30.3z M3.3,29.1c0,0.6-0.5,1-1,1s-1-0.5-1-1
		s0.5-1,1-1S3.3,28.5,3.3,29.1z"/>
</g>
</svg>
