<?xml version="1.0" encoding="utf-8"?>
<!-- Generator: Adobe Illustrator 18.1.0, SVG Export Plug-In . SVG Version: 6.00 Build 0)  -->
<!DOCTYPE svg PUBLIC "-//W3C//DTD SVG 1.1//EN" "http://www.w3.org/Graphics/SVG/1.1/DTD/svg11.dtd">
<svg version="1.1" id="Layer_1" xmlns="http://www.w3.org/2000/svg" xmlns:xlink="http://www.w3.org/1999/xlink" x="0px" y="0px"
	 width="26px" height="23px" viewBox="-11.6 9.9 26 23" enable-background="new -11.6 9.9 26 23" xml:space="preserve">
<g>
	<path opacity="0.4" fill="#848E9B" enable-background="new    " d="M-11.1,9.9v17.2h6.7v4.6c0,0.5,0.2,1,0.7,1.1
		C-3.5,33-3.4,33-3.2,33c0.2,0,0.6-0.1,0.8-0.4l5.8-5.4h10.4V9.9H-11.1z M11.4,24.8H2.5L-2,29.1v-4.3h-6.7V12.4h20.1V24.8z"/>
	<path opacity="0.4" fill="#848E9B" enable-background="new    " d="M-3.5,19.9c0.8,0,1.4-0.6,1.4-1.4c0-0.8-0.6-1.4-1.4-1.4
		S-5,17.7-5,18.5C-5,19.3-4.4,19.9-3.5,19.9z"/>
	<path opacity="0.4" fill="#848E9B" enable-background="new    " d="M1.3,19.9c0.8,0,1.4-0.6,1.4-1.4c0-0.8-0.6-1.4-1.4-1.4
		s-1.4,0.6-1.4,1.4C-0.2,19.3,0.4,19.9,1.3,19.9z"/>
	<path opacity="0.4" fill="#848E9B" enable-background="new    " d="M6.1,19.9c0.8,0,1.4-0.6,1.4-1.4c0-0.8-0.6-1.4-1.4-1.4
		s-1.4,0.6-1.4,1.4C4.7,19.3,5.3,19.9,6.1,19.9z"/>
</g>
</svg>
