<?xml version="1.0" encoding="utf-8"?>
<!-- Generator: Adobe Illustrator 18.0.0, SVG Export Plug-In . SVG Version: 6.00 Build 0)  -->
<!DOCTYPE svg PUBLIC "-//W3C//DTD SVG 1.1//EN" "http://www.w3.org/Graphics/SVG/1.1/DTD/svg11.dtd">
<svg version="1.1" id="Layer_1" xmlns="http://www.w3.org/2000/svg" xmlns:xlink="http://www.w3.org/1999/xlink" x="0px" y="0px"
	 width="30px" height="21px" viewBox="0 0 30 21" enable-background="new 0 0 30 21" xml:space="preserve">
<rect x="0" y="0" fill="#F44336" width="30" height="21"/>
<polygon fill="#F9CE1D" points="6.1,3.4 7.1,6 10,6.2 7.8,7.9 8.5,10.7 6.1,9.1 3.8,10.7 4.5,7.9 2.3,6.2 5.1,6 "/>
<polygon fill="#F9CE1D" points="12.3,1.9 12.6,2.8 13.6,2.8 12.8,3.4 13.1,4.3 12.3,3.8 11.5,4.3 11.7,3.4 11,2.8 11.9,2.8 "/>
<polygon fill="#F9CE1D" points="14.9,5.3 15.2,6.2 16.2,6.3 15.4,6.9 15.7,7.8 14.9,7.3 14.1,7.8 14.3,6.9 13.6,6.3 14.5,6.2 "/>
<polygon fill="#F9CE1D" points="13.9,9.7 14.3,10.6 15.2,10.6 14.5,11.2 14.7,12.1 13.9,11.6 13.1,12.1 13.4,11.2 12.6,10.6 
	13.6,10.6 "/>
<polygon fill="#F9CE1D" points="10.5,12.3 10.8,13.2 11.8,13.3 11,13.9 11.3,14.8 10.5,14.2 9.7,14.8 9.9,13.9 9.2,13.3 10.1,13.2 
	"/>
</svg>
