<?xml version="1.0" encoding="utf-8"?>
<!-- Generator: Adobe Illustrator 18.0.0, SVG Export Plug-In . SVG Version: 6.00 Build 0)  -->
<!DOCTYPE svg PUBLIC "-//W3C//DTD SVG 1.1//EN" "http://www.w3.org/Graphics/SVG/1.1/DTD/svg11.dtd">
<svg version="1.1" id="Layer_1" xmlns="http://www.w3.org/2000/svg" xmlns:xlink="http://www.w3.org/1999/xlink" x="0px" y="0px"
	 width="30px" height="21px" viewBox="0 0 30 21" enable-background="new 0 0 30 21" xml:space="preserve">
<rect y="0" fill="#FFFFFF" width="30" height="20.9"/>
<rect y="0" fill="#F44336" width="30" height="2.3"/>
<rect y="4.7" fill="#F44336" width="30" height="2.3"/>
<rect y="9.3" fill="#F44336" width="30" height="2.3"/>
<rect y="14" fill="#F44336" width="30" height="2.3"/>
<rect y="18.7" fill="#F44336" width="30" height="2.3"/>
<rect y="0" fill="#304FFE" width="15" height="11.7"/>
<g>
	<polygon fill="#FFFFFF" points="3.2,1.7 3.5,2.5 4.3,2.6 3.7,3.1 3.9,3.9 3.2,3.4 2.5,3.9 2.7,3.1 2.1,2.6 2.9,2.5 	"/>
	<polygon fill="#FFFFFF" points="5.4,4.8 5.7,5.6 6.5,5.6 5.9,6.1 6.1,6.9 5.4,6.5 4.7,6.9 4.9,6.1 4.2,5.6 5.1,5.6 	"/>
	<polygon fill="#FFFFFF" points="9.7,4.8 10,5.6 10.8,5.6 10.2,6.1 10.4,6.9 9.7,6.5 9,6.9 9.2,6.1 8.5,5.6 9.4,5.6 	"/>
	<polygon fill="#FFFFFF" points="7.5,1.7 7.8,2.5 8.6,2.6 8,3.1 8.2,3.9 7.5,3.4 6.8,3.9 7,3.1 6.4,2.6 7.2,2.5 	"/>
	<polygon fill="#FFFFFF" points="11.8,1.7 12.1,2.5 12.9,2.6 12.3,3.1 12.5,3.9 11.8,3.4 11.1,3.9 11.3,3.1 10.7,2.6 11.5,2.5 	"/>
	<polygon fill="#FFFFFF" points="3.2,7.8 3.5,8.6 4.3,8.6 3.7,9.1 3.9,9.9 3.2,9.5 2.5,9.9 2.7,9.1 2.1,8.6 2.9,8.6 	"/>
	<polygon fill="#FFFFFF" points="7.5,7.8 7.8,8.6 8.6,8.6 8,9.1 8.2,9.9 7.5,9.5 6.8,9.9 7,9.1 6.4,8.6 7.2,8.6 	"/>
	<polygon fill="#FFFFFF" points="11.8,7.8 12.1,8.6 12.9,8.6 12.3,9.1 12.5,9.9 11.8,9.5 11.1,9.9 11.3,9.1 10.7,8.6 11.5,8.6 	"/>
</g>
</svg>
