<?xml version="1.0" encoding="utf-8"?>
<!-- Generator: Adobe Illustrator 18.0.0, SVG Export Plug-In . SVG Version: 6.00 Build 0)  -->
<!DOCTYPE svg PUBLIC "-//W3C//DTD SVG 1.1//EN" "http://www.w3.org/Graphics/SVG/1.1/DTD/svg11.dtd">
<svg version="1.1" id="Layer_1" xmlns="http://www.w3.org/2000/svg" xmlns:xlink="http://www.w3.org/1999/xlink" x="0px" y="0px"
	 width="40px" height="40px" viewBox="0 0 40 40" enable-background="new 0 0 40 40" xml:space="preserve">
<g>
	<path fill="#FFFFFF" d="M16.3,21c3,0,5.3-2.7,5.3-6.2c0-2.9-2.4-5.3-5.3-5.3S11,11.8,11,14.7C11,18.3,13.3,21,16.3,21z M16.3,12
		c1.4,0,2.6,1.3,2.6,2.7c0,2-1.1,3.6-2.6,3.6s-2.6-1.5-2.6-3.6C13.7,13.3,14.9,12,16.3,12z"/>
	<path fill="#FFFFFF" d="M16.3,21.9c-5.5,0-8.8,2.1-9.2,5.9l-0.2,2.3h2.7l0.2-2c0.3-2.9,3.7-3.5,6.5-3.5c2.8,0,6.2,0.6,6.5,3.4
		l0.2,2.1h2.7l-0.2-2.3C25.1,24,21.8,21.9,16.3,21.9z"/>
	<polygon fill="#FFFFFF" points="29.5,18.2 29.5,14.5 27.5,14.5 27.5,18.2 23.8,18.2 23.8,20.1 27.5,20.1 27.5,23.8 29.5,23.8 
		29.5,20.1 33.1,20.1 33.1,18.2 	"/>
</g>
</svg>
