<?xml version="1.0" encoding="utf-8"?>
<!-- Generator: Adobe Illustrator 18.1.0, SVG Export Plug-In . SVG Version: 6.00 Build 0)  -->
<svg version="1.1" id="Layer_1" xmlns="http://www.w3.org/2000/svg" xmlns:xlink="http://www.w3.org/1999/xlink" x="0px" y="0px"
	 viewBox="0 0 162 36.2" enable-background="new 0 0 162 36.2" xml:space="preserve">
<g>
	<g>
		<g>
			<path fill="#D0006F" d="M137,7V0h2.5c0.3,0,0.6,0,0.9,0.1s0.5,0.2,0.7,0.4c0.2,0.2,0.4,0.4,0.5,0.6c0.1,0.2,0.2,0.5,0.2,0.8
				c0,0.3-0.1,0.6-0.2,0.8c-0.2,0.2-0.4,0.4-0.6,0.6c0.4,0.1,0.7,0.3,0.9,0.6c0.2,0.3,0.3,0.7,0.3,1.1c0,0.4-0.1,0.7-0.3,1.1
				c-0.2,0.3-0.5,0.6-1,0.7c-0.2,0.1-0.3,0.1-0.5,0.1s-0.4,0-0.5,0H137z M138.4,2.9h0.7c0.2,0,0.3,0,0.5,0c0.1,0,0.3,0,0.3-0.1
				c0.2-0.1,0.3-0.2,0.4-0.3c0.1-0.1,0.1-0.3,0.1-0.4c0-0.2-0.1-0.3-0.2-0.5c-0.1-0.1-0.3-0.3-0.5-0.3c0,0-0.1,0-0.1,0s-0.1,0-0.2,0
				c-0.1,0-0.1,0-0.2,0c-0.1,0-0.1,0-0.2,0h-0.6V2.9z M138.4,5.8h1c0.2,0,0.4,0,0.6,0c0.1,0,0.3-0.1,0.3-0.1
				c0.2-0.1,0.3-0.2,0.3-0.3c0.1-0.1,0.1-0.3,0.1-0.4c0-0.2,0-0.3-0.1-0.5c-0.1-0.1-0.2-0.3-0.4-0.4c-0.1-0.1-0.2-0.1-0.4-0.1
				c-0.1,0-0.3,0-0.5,0h-1V5.8z"/>
			<path fill="#D0006F" d="M143.8,7V0h4.8v1.3h-3.4v1.6h2.8v1.3h-2.8v1.6h3.7V7H143.8z"/>
			<path fill="#D0006F" d="M151.9,7V1.3h-2.1V0h5.6v1.3h-2.1V7H151.9z"/>
			<path fill="#D0006F" d="M155.2,7l2.9-7h1l2.9,7h-1.5l-0.6-1.4h-2.7L156.6,7H155.2z M157.6,4.4h1.8l-0.9-2.3L157.6,4.4z"/>
		</g>
	</g>
	<g>
		<g>
			<g>
				<path fill="#3F4444" d="M39.4,28.8V10.5h4.5l0.2,1.4c0.8-0.6,1.6-1.1,2.6-1.4c1-0.3,2-0.5,3-0.5c1,0,1.9,0.1,2.8,0.4
					c0.8,0.3,1.6,0.8,2.2,1.4c0.6,0.6,1.1,1.5,1.4,2.5c0.3,1,0.5,2.2,0.5,3.6v10.8h-5V18.4c0-1.4-0.3-2.5-0.9-3.2
					c-0.6-0.8-1.5-1.1-2.5-1.1c-0.8,0-1.5,0.2-2.1,0.6c-0.7,0.4-1.2,0.8-1.7,1.3v13H39.4z"/>
				<path fill="#3F4444" d="M71.9,28.8l-0.2-1.4c-0.9,0.7-1.8,1.2-2.7,1.4c-0.9,0.3-1.9,0.4-2.8,0.4c-2.2,0-3.9-0.6-5.1-1.9
					c-1.2-1.3-1.8-3.2-1.8-5.8V10.5h5v10.4c0,1.3,0.2,2.3,0.7,3.1c0.5,0.8,1.3,1.2,2.5,1.2c1,0,1.8-0.2,2.4-0.6
					c0.7-0.4,1.2-0.7,1.6-1v-13h5v18.3H71.9z"/>
				<path fill="#3F4444" d="M95.9,24.4c-0.8,1.6-1.8,2.9-3.2,3.6c-1.3,0.8-2.9,1.2-4.6,1.2c-1.2,0-2.3-0.2-3.4-0.6
					c-1.1-0.4-2-1-2.8-1.8c-0.8-0.8-1.5-1.8-2-3c-0.5-1.2-0.7-2.5-0.7-4.1c0-1.6,0.2-3,0.7-4.2c0.5-1.2,1.1-2.2,1.9-3
					c0.8-0.8,1.7-1.4,2.7-1.8c1-0.4,2.1-0.6,3.2-0.6c1.1,0,2.1,0.2,3,0.5c0.9,0.3,1.6,0.7,2.3,1.2c0.6,0.5,1.2,1.1,1.6,1.7
					c0.4,0.6,0.7,1.3,1,1.9l-3.9,1.9c-0.4-1.2-1-2.1-1.6-2.6c-0.6-0.5-1.4-0.7-2.2-0.7c-0.5,0-1,0.1-1.4,0.3c-0.5,0.2-0.9,0.6-1.2,1
					c-0.4,0.5-0.7,1-0.9,1.7c-0.2,0.7-0.3,1.6-0.3,2.5c0,1.7,0.4,3.1,1.2,4.1c0.8,1,1.8,1.4,3,1.4c1,0,1.7-0.2,2.4-0.7
					c0.6-0.5,1.2-1.2,1.6-2L95.9,24.4z"/>
				<path fill="#3F4444" d="M98.5,28.8V3.5h5v25.3H98.5z"/>
				<path fill="#3F4444" d="M110.9,20.9c0.1,1.5,0.6,2.7,1.4,3.3c0.8,0.7,1.7,1,2.7,1c0.9,0,1.7-0.2,2.4-0.5c0.7-0.3,1.4-1,2.2-2.1
					l3.7,2.2c-1,1.6-2.2,2.7-3.6,3.4c-1.4,0.6-3,1-4.8,1c-1.2,0-2.4-0.2-3.5-0.6c-1.1-0.4-2-1-2.9-1.8c-0.8-0.8-1.5-1.8-2-3
					c-0.5-1.2-0.7-2.6-0.7-4.2c0-1.5,0.2-2.9,0.7-4.1c0.5-1.2,1.1-2.2,1.9-3c0.8-0.8,1.8-1.4,2.8-1.9c1.1-0.4,2.2-0.6,3.4-0.6
					c2.6,0,4.6,0.9,6.2,2.7c1.6,1.8,2.4,4.5,2.4,8.1H110.9z M118.3,17.5c-0.1-1.2-0.5-2.1-1.2-2.7c-0.7-0.6-1.5-0.9-2.3-0.9
					c-0.4,0-0.9,0.1-1.3,0.2c-0.4,0.2-0.8,0.4-1.2,0.7c-0.4,0.3-0.7,0.7-0.9,1.2s-0.4,1-0.5,1.5H118.3z"/>
				<path fill="#3F4444" d="M138.6,28.8l-0.2-1.4c-0.9,0.7-1.8,1.2-2.7,1.4c-0.9,0.3-1.9,0.4-2.8,0.4c-2.2,0-3.9-0.6-5.1-1.9
					c-1.2-1.3-1.8-3.2-1.8-5.8V10.5h5v10.4c0,1.3,0.2,2.3,0.7,3.1c0.5,0.8,1.3,1.2,2.5,1.2c1,0,1.8-0.2,2.4-0.6
					c0.7-0.4,1.2-0.7,1.6-1v-13h5v18.3H138.6z"/>
				<path fill="#3F4444" d="M149.4,22.7c0.4,0.8,1,1.5,1.8,2c0.8,0.5,1.7,0.8,2.9,0.8c1,0,1.8-0.2,2.4-0.5c0.6-0.3,0.9-0.8,0.9-1.3
					c0-0.5-0.3-1-0.9-1.4c-0.6-0.4-1.7-0.8-3.4-1.1c-1-0.2-1.8-0.4-2.6-0.7c-0.8-0.3-1.5-0.7-2-1.1c-0.6-0.5-1-1-1.3-1.6
					c-0.3-0.6-0.5-1.4-0.5-2.3c0-1.6,0.7-2.9,2-3.9c1.4-1,3.2-1.5,5.5-1.5c2.1,0,3.7,0.3,4.9,1c1.2,0.7,2.1,1.5,2.8,2.4l-3.5,2.4
					c-0.5-0.6-1-1.1-1.7-1.5c-0.7-0.4-1.5-0.6-2.5-0.6c-1.1,0-1.8,0.2-2.2,0.5c-0.4,0.3-0.6,0.7-0.6,1.2c0,0.6,0.3,1,0.8,1.3
					c0.5,0.3,1.4,0.5,2.8,0.8c1.1,0.2,2.1,0.5,3,0.8c0.9,0.3,1.6,0.7,2.2,1.2c0.6,0.5,1.1,1,1.4,1.7c0.3,0.7,0.5,1.4,0.5,2.3
					c0,1-0.2,1.8-0.6,2.6c-0.4,0.7-1,1.3-1.7,1.8c-0.7,0.5-1.5,0.8-2.5,1c-1,0.2-2,0.3-3.1,0.3c-2.2,0-3.9-0.4-5.3-1.2
					c-1.4-0.8-2.4-1.9-3.1-3.1L149.4,22.7z"/>
			</g>
		</g>
		<g>
			<g>
				<circle fill="#00ADD0" cx="18.6" cy="13.3" r="0.4"/>
				<circle fill="#00ADD0" cx="21.2" cy="14.8" r="0.4"/>
				<circle fill="#00ADD0" cx="23.5" cy="16.5" r="0.5"/>
				<circle fill="#00ADD0" cx="25.7" cy="18.4" r="0.6"/>
				<circle fill="#00ADD0" cx="27.7" cy="20.6" r="0.8"/>
				<circle fill="#00ADD0" cx="29.2" cy="23.1" r="1"/>
				<circle fill="#00ADD0" cx="29.7" cy="26" r="1.2"/>
				<path fill="#00ADD0" d="M27.6,26.5c-0.7,0-1.3,0.5-1.4,1.2c-0.2-0.6-0.8-1-1.5-1c-0.5,0-1,0.2-1.3,0.6c-0.3-0.6-0.9-1.1-1.7-1.1
					c-0.4,0-0.8,0.1-1.1,0.3c-0.3-0.7-1-1.2-1.8-1.2c-0.3,0-0.6,0.1-0.9,0.2c-0.3-0.8-1-1.3-1.9-1.3c-0.3,0-0.5,0.1-0.7,0.1
					c-0.3-0.8-1.1-1.4-2-1.4c-0.2,0-0.4,0-0.6,0.1c-0.2-0.9-1-1.5-2-1.5c-0.2,0-0.3,0-0.4,0c-0.2-0.9-1-1.6-2-1.6
					c-0.1,0-0.2,0-0.4,0c-0.1-1-0.9-1.8-1.9-1.8c-0.1,0-0.2,0-0.3,0c0-0.1,0-0.1,0-0.2c0-1-0.8-1.8-1.8-1.8c-0.1,0-0.2,0-0.3,0
					C4,16.1,4,15.9,4,15.7c0-0.9-0.7-1.6-1.6-1.6c-0.1,0-0.2,0-0.3,0c0.4-0.2,0.6-0.7,0.6-1.2c0-0.8-0.6-1.4-1.4-1.4
					C0.6,11.6,0,12.2,0,13c0,0.8,0.6,1.4,1.4,1.4c0.1,0,0.2,0,0.2,0c-0.5,0.3-0.8,0.8-0.8,1.4c0,0.9,0.7,1.6,1.6,1.6
					c0.1,0,0.1,0,0.1,0c-0.1,0.2-0.2,0.5-0.2,0.8c0,1,0.8,1.8,1.8,1.8c0.1,0,0.1,0,0.2,0c0,0.1,0,0.2,0,0.3c0,1.1,0.9,1.9,1.9,1.9
					c0.1,0,0.2,0,0.3,0c0,1.1,0.9,2,2,2c0.1,0,0.3,0,0.4,0c0.2,1,1,1.7,2,1.7c0.2,0,0.4,0,0.6-0.1c0.2,0.9,1,1.5,2,1.5
					c0.3,0,0.5-0.1,0.8-0.1c0.3,0.8,1,1.3,1.9,1.3c0.4,0,0.7-0.1,1-0.3c0.3,0.7,1,1.2,1.8,1.2c0.5,0,0.9-0.2,1.2-0.4
					c0.3,0.6,0.9,1,1.6,1c0.6,0,1.1-0.3,1.5-0.8c0.3,0.5,0.8,0.9,1.4,0.9c0.8,0,1.5-0.6,1.6-1.4c0.2,0.5,0.7,0.8,1.3,0.8
					c0.8,0,1.4-0.6,1.4-1.4C29,27.1,28.4,26.5,27.6,26.5z"/>
				<circle fill="#00ADD0" cx="2.4" cy="10.4" r="1.2"/>
				<circle fill="#00ADD0" cx="5.2" cy="9.6" r="0.9"/>
				<circle fill="#00ADD0" cx="8.1" cy="9.6" r="0.7"/>
				<circle fill="#00ADD0" cx="11" cy="10.2" r="0.6"/>
				<circle fill="#00ADD0" cx="13.8" cy="11.1" r="0.5"/>
				<circle fill="#00ADD0" cx="16.5" cy="12.2" r="0.4"/>
			</g>
			<g>
				<circle fill="#830051" cx="12.5" cy="13.3" r="0.3"/>
				<circle fill="#830051" cx="10" cy="14.8" r="0.4"/>
				<circle fill="#830051" cx="7.6" cy="16.5" r="0.4"/>
				<circle fill="#830051" cx="3.5" cy="20.5" r="0.7"/>
				<circle fill="#830051" cx="1.9" cy="23" r="0.9"/>
				<circle fill="#830051" cx="1.4" cy="25.8" r="1.2"/>
				<path fill="#830051" d="M31,13.4c0-0.8-0.6-1.4-1.4-1.4c-0.8,0-1.4,0.6-1.4,1.4c0,0.4,0.2,0.8,0.5,1.1c-0.1,0-0.2,0-0.3,0
					c-0.9,0-1.6,0.7-1.6,1.6c0,0.2,0,0.4,0.1,0.5c-0.1,0-0.2,0-0.3,0c-1,0-1.8,0.8-1.8,1.8c0,0,0,0.1,0,0.1c-0.1,0-0.2,0-0.3,0
					c-1,0-1.8,0.8-1.9,1.8c-0.1,0-0.2,0-0.4,0c-1,0-1.8,0.7-2,1.6c-0.1,0-0.3,0-0.4,0c-0.9,0-1.7,0.6-2,1.5
					c-0.2-0.1-0.4-0.1-0.6-0.1c-0.9,0-1.7,0.6-2,1.4c-0.2-0.1-0.5-0.1-0.7-0.1c-0.9,0-1.6,0.5-1.9,1.3c-0.3-0.1-0.6-0.2-0.9-0.2
					c-0.8,0-1.5,0.5-1.8,1.2c-0.3-0.2-0.7-0.4-1.1-0.4c-0.7,0-1.4,0.4-1.6,1.1c-0.3-0.4-0.7-0.6-1.3-0.6c-0.7,0-1.3,0.4-1.5,1
					c-0.1-0.7-0.7-1.2-1.4-1.2c-0.8,0-1.4,0.6-1.4,1.4c0,0.8,0.6,1.4,1.4,1.4c0.6,0,1.1-0.3,1.3-0.8c0.1,0.8,0.7,1.5,1.6,1.5
					c0.6,0,1.1-0.4,1.4-0.9c0.3,0.5,0.9,0.8,1.5,0.8c0.7,0,1.3-0.4,1.6-1c0.3,0.3,0.8,0.5,1.2,0.5c0.8,0,1.4-0.5,1.8-1.1
					c0.3,0.2,0.6,0.3,1,0.3c0.9,0,1.6-0.5,1.9-1.3c0.2,0.1,0.5,0.1,0.8,0.1c0.9,0,1.7-0.6,2-1.5c0.2,0.1,0.4,0.1,0.6,0.1
					c1,0,1.9-0.7,2-1.7c0.1,0,0.3,0,0.4,0c1.1,0,2-0.9,2-1.9c0.1,0,0.2,0,0.3,0c1.1,0,1.9-0.9,1.9-1.9c0-0.1,0-0.2,0-0.3
					c0.1,0,0.1,0,0.2,0c1,0,1.8-0.8,1.8-1.8c0-0.3-0.1-0.5-0.1-0.7c0,0,0.1,0,0.1,0c0.9,0,1.6-0.7,1.6-1.6c0-0.5-0.3-1-0.7-1.3
					c0.1,0,0.1,0,0.2,0C30.4,14.8,31,14.1,31,13.4z"/>
				<circle fill="#830051" cx="29" cy="10.7" r="1.2"/>
				<circle fill="#830051" cx="26.3" cy="9.6" r="0.9"/>
				<circle fill="#830051" cx="23.4" cy="9.6" r="0.7"/>
				<circle fill="#830051" cx="17.8" cy="10.9" r="0.4"/>
				<circle fill="#830051" cx="15.1" cy="12" r="0.4"/>
			</g>
			<circle fill="#971964" cx="20.6" cy="10.1" r="0.6"/>
			<g>
				<circle fill="#003865" cx="22" cy="18.9" r="0.6"/>
				<circle fill="#003865" cx="21.9" cy="16" r="0.5"/>
				<circle fill="#003865" cx="21.4" cy="12.6" r="0.4"/>
				<circle fill="#003865" cx="19.9" cy="7.4" r="0.7"/>
				<circle fill="#003865" cx="18.4" cy="4.9" r="0.8"/>
				<circle fill="#003865" cx="16.1" cy="3.1" r="1"/>
				<circle fill="#003865" cx="13.5" cy="4" r="1.2"/>
				<circle fill="#003865" cx="11.7" cy="6.3" r="1.4"/>
				<path fill="#003865" d="M18.7,31c-0.8,0-1.5,0.7-1.5,1.5c0,0.2,0,0.3,0.1,0.5c-0.2-0.1-0.4-0.1-0.7-0.1c-0.4,0-0.8,0.2-1.1,0.5
					c-0.3-0.5-0.9-0.9-1.5-0.9c0-0.1,0-0.2,0-0.4c0-0.9-0.5-1.6-1.3-1.9c0.1-0.2,0.2-0.5,0.2-0.8c0-0.8-0.4-1.4-1.1-1.8
					c0.2-0.3,0.3-0.6,0.3-1c0-0.7-0.4-1.3-0.9-1.7c0.2-0.3,0.4-0.7,0.4-1.2c0-0.7-0.3-1.2-0.8-1.6c0.3-0.4,0.5-0.8,0.5-1.3
					c0-0.6-0.3-1.2-0.7-1.5c0.4-0.4,0.6-0.9,0.6-1.4c0-0.6-0.3-1.1-0.7-1.4c0.5-0.3,0.8-0.9,0.8-1.5c0-0.5-0.2-1-0.6-1.4
					c0.6-0.3,1-0.9,1-1.5c0-0.5-0.3-1-0.6-1.3c0.7-0.1,1.2-0.8,1.2-1.5c0-0.8-0.7-1.5-1.5-1.5C9.8,7.5,9.1,8.2,9.1,9
					c0,0.5,0.2,0.9,0.5,1.2c-0.8,0.1-1.5,0.8-1.5,1.7c0,0.5,0.2,0.9,0.5,1.2C8,13.4,7.5,14,7.5,14.8c0,0.5,0.2,1,0.5,1.3
					c-0.5,0.4-0.9,0.9-0.9,1.6c0,0.6,0.2,1.1,0.6,1.4c-0.4,0.4-0.7,0.9-0.7,1.5c0,0.6,0.3,1.2,0.7,1.6c-0.3,0.4-0.5,0.8-0.5,1.4
					c0,0.7,0.4,1.3,0.9,1.7C8,25.6,7.9,26,7.9,26.4c0,0.8,0.5,1.5,1.1,1.8c-0.2,0.3-0.3,0.6-0.3,1c0,0.9,0.6,1.7,1.4,2
					c-0.1,0.2-0.1,0.5-0.1,0.7c0,1.1,0.9,2,2,2c0,0,0,0,0,0c0,0.1,0,0.2,0,0.2c0,1,0.8,1.9,1.9,1.9c0.5,0,1-0.2,1.4-0.6
					c0.3,0.5,0.8,0.8,1.4,0.8c0.9,0,1.7-0.8,1.7-1.7c0-0.2,0-0.4-0.1-0.6c0.2,0.1,0.3,0.1,0.5,0.1c0.8,0,1.5-0.7,1.5-1.5
					C20.2,31.6,19.6,31,18.7,31z"/>
				<path fill="#003865" d="M20.2,28.8c-0.3,0.3-0.7,0.4-1.2,0.4c-0.1,0.2-0.2,0.4-0.2,0.6c0,0.7,0.6,1.3,1.3,1.3s1.3-0.6,1.3-1.3
					c0,0,0-0.1,0-0.1C20.8,29.6,20.4,29.2,20.2,28.8z"/>
			</g>
		</g>
	</g>
</g>
</svg>
