<?xml version="1.0" encoding="utf-8"?>
<!-- Generator: Adobe Illustrator 18.0.0, SVG Export Plug-In . SVG Version: 6.00 Build 0)  -->
<!DOCTYPE svg PUBLIC "-//W3C//DTD SVG 1.1//EN" "http://www.w3.org/Graphics/SVG/1.1/DTD/svg11.dtd">
<svg version="1.1" id="Layer_1" xmlns="http://www.w3.org/2000/svg" xmlns:xlink="http://www.w3.org/1999/xlink" x="0px" y="0px"
	 width="26.1px" height="20px" viewBox="0 0 26.1 20" enable-background="new 0 0 26.1 20" xml:space="preserve">
<g opacity="0.4">
	<path fill="#848E9B" d="M26.1,10c0,2.7-1,5.2-2.9,7.1C21.3,19,18.8,20,16.1,20s-5.2-1-7.1-2.9S6.1,12.7,6.1,10s1-5.2,2.9-7.1
		C11,1,13.5,0,16.1,0c2.7,0,5.2,1,7.1,2.9C25.1,4.8,26.1,7.3,26.1,10z M8.2,9h3.3c0.1-2.1,0.5-4.1,1.1-5.7c0.1-0.2,0.2-0.4,0.3-0.6
		c-0.9,0.4-1.7,1-2.4,1.7C9.2,5.6,8.4,7.2,8.2,9z M10.5,15.7c0.7,0.7,1.5,1.3,2.4,1.6c-0.1-0.2-0.2-0.4-0.3-0.6
		c-0.6-1.6-1-3.6-1.1-5.7H8.2C8.4,12.8,9.2,14.4,10.5,15.7z M16.1,2c-0.4,0-1,0.6-1.6,2c-0.5,1.4-0.9,3.1-1,5h5.3
		c-0.1-1.9-0.4-3.6-1-5c0-0.1-0.1-0.1-0.1-0.2c0.9,0.2,1.8,0.7,2.6,1.3c0.3,1.2,0.5,2.5,0.5,3.9h3.3c-0.2-1.8-1-3.4-2.3-4.7
		C20.3,2.8,18.3,2,16.1,2L16.1,2z M17.8,16c0.5-1.4,0.9-3.1,1-5h-5.3c0.1,1.9,0.4,3.6,1,5c0.6,1.5,1.3,2,1.7,2
		C16.5,18,17.2,17.5,17.8,16z M24.1,11h-3.3c-0.1,2.1-0.5,4.1-1.1,5.7c-0.1,0.2-0.2,0.4-0.3,0.6c0.9-0.4,1.7-0.9,2.4-1.6
		C23.1,14.4,23.9,12.8,24.1,11z"/>
</g>
<g opacity="0.4">
	<path fill="#848E9B" d="M2.5,4.5v3l-0.5,4H0.5L0,7.5v-3H2.5z M0,13h2.5v2.5H0V13z"/>
</g>
</svg>
