<?xml version="1.0" encoding="utf-8"?>
<!-- Generator: Adobe Illustrator 18.0.0, SVG Export Plug-In . SVG Version: 6.00 Build 0)  -->
<!DOCTYPE svg PUBLIC "-//W3C//DTD SVG 1.1//EN" "http://www.w3.org/Graphics/SVG/1.1/DTD/svg11.dtd">
<svg version="1.1" id="Layer_1" xmlns="http://www.w3.org/2000/svg" xmlns:xlink="http://www.w3.org/1999/xlink" x="0px" y="0px"
	 width="20px" height="20px" viewBox="0 0 20 20" enable-background="new 0 0 20 20" xml:space="preserve">
<g opacity="0.4">
	<path fill="#848E9B" d="M20,10c0,2.7-1,5.2-2.9,7.1S12.7,20,10,20s-5.2-1-7.1-2.9S0,12.7,0,10s1-5.2,2.9-7.1S7.3,0,10,0
		s5.2,1,7.1,2.9S20,7.3,20,10z M2,9h3.3c0.1-2.1,0.5-4.1,1.1-5.7C6.5,3,6.6,2.8,6.7,2.7C5.8,3.1,5,3.6,4.3,4.3C3,5.6,2.3,7.2,2,9z
		 M4.3,15.7C5,16.4,5.8,17,6.7,17.3c-0.1-0.2-0.2-0.4-0.3-0.6c-0.6-1.6-1-3.6-1.1-5.7H2C2.3,12.8,3,14.4,4.3,15.7z M10,2
		C9.6,2,9,2.6,8.4,4c-0.5,1.4-0.9,3.1-1,5h5.3c-0.1-1.9-0.4-3.6-1-5c0-0.1-0.1-0.1-0.1-0.2c0.9,0.2,1.8,0.7,2.6,1.3
		c0.3,1.2,0.5,2.5,0.5,3.9H18c-0.2-1.8-1-3.4-2.3-4.7C14.2,2.8,12.1,2,10,2L10,2z M11.7,16c0.5-1.4,0.9-3.1,1-5H7.4
		c0.1,1.9,0.4,3.6,1,5c0.6,1.5,1.3,2,1.7,2C10.4,18,11,17.5,11.7,16z M18,11h-3.3c-0.1,2.1-0.5,4.1-1.1,5.7
		c-0.1,0.2-0.2,0.4-0.3,0.6c0.9-0.4,1.7-0.9,2.4-1.6C17,14.4,17.7,12.8,18,11z"/>
</g>
</svg>
