<?xml version="1.0" encoding="utf-8"?>
<!-- Generator: Adobe Illustrator 18.0.0, SVG Export Plug-In . SVG Version: 6.00 Build 0)  -->
<!DOCTYPE svg PUBLIC "-//W3C//DTD SVG 1.1//EN" "http://www.w3.org/Graphics/SVG/1.1/DTD/svg11.dtd">
<svg version="1.1" id="Layer_1" xmlns="http://www.w3.org/2000/svg" xmlns:xlink="http://www.w3.org/1999/xlink" x="0px" y="0px"
	 width="60px" height="60px" viewBox="70 70 60 60" enable-background="new 70 70 60 60" xml:space="preserve">
<g>
	<path fill="#FFFFFF" d="M93.5,102.3c0.8,0.8,1.8,1.3,2.8,1.8l-1.7,4.9l-0.8,0.2c-1.5,0.3-4.6,0.9-5.4,1.1c-0.6,0.2-1.4,0.5-1.6,2
		c-0.2,0.9-0.3,3.9-0.5,6.3h-3.2c0.2-2.4,0.3-5.6,0.5-6.7c0.3-2.4,1.8-4.2,4-4.7c0.8-0.2,3.3-0.7,4.6-1L93.5,102.3z M91.5,91.6
		c0-5,4.1-9.1,9-9.1s9,4.2,9,9.1c0,6.1-3.9,10.8-9,10.8S91.5,97.7,91.5,91.6z M94.6,91.6c0,4.4,2.5,7.7,5.9,7.7s5.9-3.3,5.9-7.7
		c0-3.2-2.7-6-5.9-6S94.6,88.4,94.6,91.6z M101.8,111.8l1.7,6.7h-6l1.7-6.7l-1.6-1.5l2.9-4.7l2.9,4.7L101.8,111.8z M117.9,118.5
		h-3.3c-0.2-2.4-0.3-5.3-0.4-6.3c-0.2-1.4-1-1.8-1.6-2c-0.8-0.2-3.9-0.8-5.4-1.1l-0.8-0.2l-1.7-4.8c1-0.4,1.9-1,2.8-1.8l1.3,3.8
		c1.3,0.3,3.9,0.8,4.6,1c2.3,0.6,3.7,2.3,4,4.7C117.5,112.9,117.7,116,117.9,118.5z"/>
</g>
</svg>
