<?xml version="1.0" encoding="utf-8"?>
<!-- Generator: Adobe Illustrator 18.0.0, SVG Export Plug-In . SVG Version: 6.00 Build 0)  -->
<!DOCTYPE svg PUBLIC "-//W3C//DTD SVG 1.1//EN" "http://www.w3.org/Graphics/SVG/1.1/DTD/svg11.dtd">
<svg version="1.1" id="Layer_1" xmlns="http://www.w3.org/2000/svg" xmlns:xlink="http://www.w3.org/1999/xlink" x="0px" y="0px"
	 width="45px" height="45px" viewBox="0 0 45 45" enable-background="new 0 0 45 45" xml:space="preserve">
<g>
	<path fill="#FFFFFF" d="M14.2,24.7c1,0.9,2.1,1.6,3.3,2.1l-2,5.8l-1,0.2c-1.8,0.4-5.5,1.1-6.4,1.3c-0.7,0.2-1.7,0.6-1.9,2.4
		C6,37.6,5.8,41.1,5.6,44H1.8c0.2-2.9,0.4-6.7,0.6-8c0.3-2.9,2.1-5,4.8-5.6c0.9-0.2,3.9-0.8,5.5-1.2L14.2,24.7z M11.8,11.9
		C11.8,6,16.7,1,22.5,1s10.7,5,10.7,10.9c0,7.3-4.6,12.9-10.7,12.9S11.8,19.2,11.8,11.9z M15.5,11.9c0,5.2,3,9.2,7,9.2s7-3.9,7-9.2
		c0-3.8-3.2-7.1-7-7.1S15.5,8.1,15.5,11.9z M24.1,36l2,8h-7.2l2-8L19,34.2l3.5-5.6l3.5,5.6L24.1,36z M43.2,44h-3.9
		c-0.2-2.9-0.4-6.3-0.5-7.5c-0.2-1.7-1.2-2.2-1.9-2.4c-0.9-0.2-4.6-1-6.4-1.3l-1-0.2l-2-5.7c1.2-0.5,2.3-1.2,3.3-2.1l1.6,4.5
		c1.6,0.3,4.6,1,5.5,1.2c2.7,0.7,4.4,2.7,4.8,5.6C42.8,37.3,43,41,43.2,44z"/>
</g>
</svg>
