<?xml version="1.0" encoding="utf-8"?>
<!-- Generator: Adobe Illustrator 18.0.0, SVG Export Plug-In . SVG Version: 6.00 Build 0)  -->
<!DOCTYPE svg PUBLIC "-//W3C//DTD SVG 1.1//EN" "http://www.w3.org/Graphics/SVG/1.1/DTD/svg11.dtd">
<svg version="1.1" id="Layer_1" xmlns="http://www.w3.org/2000/svg" xmlns:xlink="http://www.w3.org/1999/xlink" x="0px" y="0px"
	 width="19.1px" height="11.1px" viewBox="-5.2 4 19.1 11.1" enable-background="new -5.2 4 19.1 11.1" xml:space="preserve">
<g opacity="0.4">
	<path fill="#FFFFFF" d="M-2.2,7.4h1v4.3h-1V7.4z"/>
	<path fill="#FFFFFF" d="M-0.5,7.4h1l0.7,1.9L1.5,10h0l0.3-0.7l0.7-1.9h1v4.3H2.6v-1.6c0-0.4,0.1-1,0.1-1.5h0l-0.3,1l-0.7,1.7H1.3
		L0.6,9.6l-0.3-1h0c0,0.4,0.1,1,0.1,1.5v1.6h-0.9V7.4z"/>
	<path fill="#FFFFFF" d="M4.3,7.4h2.7v0.8H5.2V9h1.5v0.8H5.2v1H7v0.8H4.3V7.4z"/>
	<path fill="#FFFFFF" d="M7.6,7.4h1.2C10.1,7.4,11,8,11,9.5c0,1.5-0.8,2.2-2.1,2.2H7.6V7.4z M8.7,10.9c0.7,0,1.2-0.4,1.2-1.4
		c0-1-0.5-1.3-1.2-1.3H8.6v2.7H8.7z"/>
</g>
<g opacity="0.4">
	<path fill="#FFFFFF" d="M13.2,4.7v9.6H-4.4V4.7H13.2 M13.9,4H-5.2v11.1h19.1V4L13.9,4z"/>
</g>
</svg>
