<?xml version="1.0" encoding="utf-8"?>
<!-- Generator: Adobe Illustrator 18.0.0, SVG Export Plug-In . SVG Version: 6.00 Build 0)  -->
<!DOCTYPE svg PUBLIC "-//W3C//DTD SVG 1.1//EN" "http://www.w3.org/Graphics/SVG/1.1/DTD/svg11.dtd">
<svg version="1.1" id="Layer_1" xmlns="http://www.w3.org/2000/svg" xmlns:xlink="http://www.w3.org/1999/xlink" x="0px" y="0px"
	 width="19.1px" height="11.1px" viewBox="0 0 19.1 11.1" enable-background="new 0 0 19.1 11.1" xml:space="preserve">
<g opacity="0.4">
	<path fill="#848E9B" d="M3,3.4h1v4.3H3V3.4z"/>
	<path fill="#848E9B" d="M4.7,3.4h1l0.7,1.9L6.7,6l0,0L7,5.3l0.7-1.9h1v4.3H7.8V6.1c0-0.4,0.1-1,0.1-1.5l0,0l-0.3,1L6.9,7.3H6.5
		L5.8,5.6l-0.3-1l0,0c0,0.4,0.1,1,0.1,1.5v1.6H4.7C4.7,7.7,4.7,3.4,4.7,3.4z"/>
	<path fill="#848E9B" d="M9.5,3.4h2.7v0.8h-1.8V5h1.5v0.8h-1.5v1h1.8v0.8H9.5V3.4z"/>
	<path fill="#848E9B" d="M12.8,3.4H14c1.3,0,2.2,0.6,2.2,2.1s-0.8,2.2-2.1,2.2h-1.3V3.4z M13.9,6.9c0.7,0,1.2-0.4,1.2-1.4
		s-0.5-1.3-1.2-1.3h-0.1L13.9,6.9L13.9,6.9z"/>
</g>
<g opacity="0.4">
	<path fill="#848E9B" d="M18.4,0.7v9.6H0.8V0.7H18.4 M19.1,0H0v11.1h19.1L19.1,0L19.1,0z"/>
</g>
</svg>
