<?xml version="1.0" encoding="utf-8"?>
<!-- Generator: Adobe Illustrator 18.1.0, SVG Export Plug-In . SVG Version: 6.00 Build 0)  -->
<!DOCTYPE svg PUBLIC "-//W3C//DTD SVG 1.1//EN" "http://www.w3.org/Graphics/SVG/1.1/DTD/svg11.dtd">
<svg version="1.1" id="Layer_1" xmlns="http://www.w3.org/2000/svg" xmlns:xlink="http://www.w3.org/1999/xlink" x="0px" y="0px"
	 viewBox="-21 22 13.3 14" enable-background="new -21 22 13.3 14" xml:space="preserve">
<g opacity="0.3">
	<path fill="#848E9B" d="M-8.2,30.7c0,0.1,0,0.3,0,0.4c0,0.3,0.1,0.7-0.1,1.3c-0.1,0.5-0.4,0.8-0.7,1.1c-0.1,0.1-0.2,0.2-0.3,0.4
		c-0.1,0.1-0.1,0.2-0.1,0.3c-0.2,0.4-0.4,1-1.3,1.4c-0.7,0.3-1.6,0.4-1.9,0.4h-0.1c-1.2,0-2.3-0.5-3.3-1.1c-0.8-0.5-3.4-0.3-4.2-0.2
		c-0.1,0-0.3-0.1-0.3-0.2c-0.8-1.9-0.4-5-0.3-6c0-0.2,0.2-0.3,0.4-0.3c4.4,0,5.7-4.3,6.4-5.2c0.8-1.1,1.6-1,2.2-0.7
		c1.1,0.6,0,2.9-0.2,3.3c-0.2,0.3-0.3,0.6-0.3,1s0.5,0.5,1.1,0.5h1.4c1.3,0,2.1,0.7,2.1,1.9c0,0.6-0.2,1-0.4,1.4
		C-8.1,30.5-8.1,30.6-8.2,30.7z"/>
</g>
</svg>
