<?xml version="1.0" encoding="utf-8"?>
<!-- Generator: Adobe Illustrator 18.0.0, SVG Export Plug-In . SVG Version: 6.00 Build 0)  -->
<!DOCTYPE svg PUBLIC "-//W3C//DTD SVG 1.1//EN" "http://www.w3.org/Graphics/SVG/1.1/DTD/svg11.dtd">
<svg version="1.1" id="Layer_1" xmlns="http://www.w3.org/2000/svg" xmlns:xlink="http://www.w3.org/1999/xlink" x="0px" y="0px"
	 width="16px" height="17.5px" viewBox="28.2 11.2 16 17.5" enable-background="new 28.2 11.2 16 17.5" xml:space="preserve">
<path fill="#FFFFFF" d="M43.7,21.8c0,0,0,0,0.1-0.1c0.2-0.4,0.5-1,0.5-1.8c0-1.6-1.1-2.6-3-2.6h-1.8c-0.3,0-0.7-0.1-0.8-0.4l0-0.1
	c0-0.4,0.1-0.8,0.3-1.3c0.3-0.5,0.6-1.1,0.6-1.9c0-0.8-0.5-1.6-1.2-2c-0.3-0.2-0.8-0.3-1.2-0.3c-0.5,0-1,0.1-1.5,0.3
	c-0.5,0.3-1.6,1.4-2.8,3l-0.2,0.2c-1.3,1.6-2.4,3-4.2,3.1h-0.2v2.1h0.2c3-0.2,4.6-2.3,5.9-3.9l0.1-0.1c1.1-1.4,2-2.3,2.2-2.4
	c0.1,0,0.2-0.1,0.3-0.1c0.1,0,0.2,0,0.3,0.1c0.1,0,0.2,0.1,0.2,0.2c0,0.1-0.2,0.6-0.3,0.8c-0.3,0.6-0.7,1.4-0.6,2.5
	c0.1,1.3,1.3,2.3,3,2.3h1.7c0.7,0,0.9,0.2,0.9,0.6c0,0.2-0.1,0.4-0.1,0.5c0,0.1-0.1,0.1-0.1,0.2l0,0c-0.1,0.2-0.2,0.4-0.2,0.5
	c0,0.1,0,0.2-0.1,0.3c-0.1,0.5-0.1,0.8-0.1,1.3c0,0.3,0,0.5-0.1,0.8c0,0.1-0.1,0.3-0.3,0.5l-0.2,0.2c-0.2,0.2-0.4,0.4-0.6,0.7
	c-0.1,0.2-0.2,0.4-0.3,0.6c0,0.1-0.1,0.2-0.1,0.2c-0.1,0.4-0.2,0.4-0.5,0.6l-0.1,0.1c-0.5,0.2-1.3,0.3-1.6,0.3h-0.1
	c-1.2,0-2.4-0.3-3.4-0.9C33.1,25,31.3,25,29.8,25h-1.5V27h1.2c0.7,0,2.9,0,3.7,0.4c1.4,0.8,3,1.3,4.4,1.3h0.1c1.3,0,2.1-0.3,2.5-0.5
	c1.2-0.6,1.5-1.3,1.7-2c0-0.1,0-0.1,0.1-0.2c0,0,0-0.1,0-0.1l0-0.1c0.1-0.2,0.2-0.3,0.4-0.5c0.1-0.1,0.1-0.1,0.2-0.2
	c0.3-0.3,0.5-0.7,0.7-1.2c0.2-0.8,0.2-1.4,0.2-1.8v-0.4h0.3c0,0,0,0,0,0C43.8,21.8,43.8,21.8,43.7,21.8
	C43.7,21.8,43.7,21.8,43.7,21.8z"/>
</svg>
