<?xml version="1.0" encoding="utf-8"?>
<!-- Generator: Adobe Illustrator 18.1.0, SVG Export Plug-In . SVG Version: 6.00 Build 0)  -->
<!DOCTYPE svg PUBLIC "-//W3C//DTD SVG 1.1//EN" "http://www.w3.org/Graphics/SVG/1.1/DTD/svg11.dtd">
<svg version="1.1" id="Layer_1" xmlns="http://www.w3.org/2000/svg" xmlns:xlink="http://www.w3.org/1999/xlink" x="0px" y="0px"
	 viewBox="-217 420 10 10" enable-background="new -217 420 10 10" xml:space="preserve">
<g>
	<path fill="#D0006F" d="M-212.4,426.9l0.7-0.7c0.2,0.3,0.3,0.7,0.3,1.1c0,0.5-0.2,1.1-0.6,1.4l-0.6,0.7c-0.4,0.4-0.9,0.6-1.4,0.6
		s-1.1-0.2-1.5-0.6l-0.9-0.9c-0.8-0.8-0.8-2.1,0-2.9l0.7-0.7c0.4-0.4,0.9-0.6,1.4-0.6c0.4,0,0.8,0.1,1.1,0.3l-0.7,0.8
		c-0.1-0.1-0.3-0.1-0.4-0.1c-0.3,0-0.5,0.1-0.7,0.3l-0.7,0.7c-0.4,0.4-0.4,1.1,0,1.5l0.9,0.9c0.2,0.2,0.5,0.3,0.8,0.3
		s0.6-0.1,0.8-0.3l0.6-0.7C-212.3,427.7-212.2,427.3-212.4,426.9z M-210,423.7l-0.7-0.7l-3.4,3.4l0.7,0.7L-210,423.7z M-207.6,424.4
		l-0.7,0.7c-0.4,0.4-0.9,0.6-1.4,0.6c-0.4,0-0.8-0.1-1.1-0.3l0.7-0.7c0.1,0,0.2,0.1,0.4,0.1c0.3,0,0.6-0.1,0.8-0.3l0.7-0.7
		c0.4-0.4,0.4-1.1,0-1.5l-1-1c-0.2-0.2-0.5-0.3-0.8-0.3s-0.5,0.1-0.7,0.3l-0.7,0.7c-0.2,0.2-0.3,0.4-0.3,0.7c0,0.1,0,0.3,0.1,0.4
		l-0.7,0.7c-0.3-0.3-0.4-0.7-0.4-1.1c0-0.5,0.2-1.1,0.6-1.4l0.7-0.7c0.4-0.4,0.9-0.6,1.4-0.6s1.1,0.2,1.4,0.6l0.9,0.9
		C-206.8,422.3-206.8,423.6-207.6,424.4z"/>
</g>
</svg>
