<?xml version="1.0" encoding="utf-8"?>
<!-- Generator: Adobe Illustrator 18.0.0, SVG Export Plug-In . SVG Version: 6.00 Build 0)  -->
<!DOCTYPE svg PUBLIC "-//W3C//DTD SVG 1.1//EN" "http://www.w3.org/Graphics/SVG/1.1/DTD/svg11.dtd">
<svg version="1.1" id="Layer_1" xmlns="http://www.w3.org/2000/svg" xmlns:xlink="http://www.w3.org/1999/xlink" x="0px" y="0px"
	 width="14px" height="14px" viewBox="-2 -2 14 14" enable-background="new -2 -2 14 14" xml:space="preserve">
<g opacity="0.4">
	<path fill="#FFFFFF" d="M4.4,7.7l1-1c0.3,0.4,0.4,1,0.4,1.5c0,0.7-0.3,1.5-0.8,2l-0.8,1c-0.6,0.6-1.3,0.8-2,0.8s-1.5-0.3-2.1-0.8
		l-1.3-1.3c-1.1-1.1-1.1-2.9,0-4.1l1-1C0.4,4.3,1.1,4,1.8,4c0.6,0,1.1,0.1,1.5,0.4l-1,1.1C2.2,5.4,1.9,5.4,1.8,5.4
		c-0.4,0-0.7,0.1-1,0.4l-1,1c-0.6,0.6-0.6,1.5,0,2.1l1.3,1.3c0.3,0.3,0.7,0.4,1.1,0.4s0.8-0.1,1.1-0.4l0.8-1
		C4.6,8.8,4.7,8.2,4.4,7.7z M7.8,3.2l-1-1L2.1,7l1,1L7.8,3.2z M11.2,4.2l-1,1C9.6,5.7,8.9,6,8.2,6C7.7,6,7.1,5.8,6.7,5.6l1-1
		c0.1,0,0.3,0.1,0.6,0.1c0.4,0,0.8-0.1,1.1-0.4l1-1c0.6-0.6,0.6-1.5,0-2.1L8.9-0.2C8.6-0.5,8.2-0.6,7.8-0.6c-0.4,0-0.7,0.1-1,0.4
		l-1,1c-0.3,0.3-0.4,0.6-0.4,1c0,0.1,0,0.4,0.1,0.6l-1,1C4.2,2.9,4,2.3,4,1.8c0-0.7,0.3-1.5,0.8-2l1-1C6.4-1.7,7.1-2,7.8-2
		s1.5,0.3,2,0.8L11,0.1C12.3,1.2,12.3,3,11.2,4.2z"/>
</g>
</svg>
