<?xml version="1.0" encoding="utf-8"?>
<!-- Generator: Adobe Illustrator 18.0.0, SVG Export Plug-In . SVG Version: 6.00 Build 0)  -->
<!DOCTYPE svg PUBLIC "-//W3C//DTD SVG 1.1//EN" "http://www.w3.org/Graphics/SVG/1.1/DTD/svg11.dtd">
<svg version="1.1" id="Layer_1" xmlns="http://www.w3.org/2000/svg" xmlns:xlink="http://www.w3.org/1999/xlink" x="0px" y="0px"
	 width="40px" height="40px" viewBox="0 0 40 40" enable-background="new 0 0 40 40" xml:space="preserve">
<path fill="#FFFFFF" d="M14.8,28.6h-3.6V16.9h3.6V28.6z M12.8,15.5L12.8,15.5c-1.3,0-2.2-0.9-2.2-2c0-1.2,0.9-2,2.2-2
	c1.3,0,2.2,0.9,2.2,2C15.1,14.6,14.2,15.5,12.8,15.5z M29.4,28.6h-4.1v-6c0-1.6-0.6-2.7-2.1-2.7c-1.1,0-1.7,0.7-2,1.4
	c-0.1,0.3-0.1,0.6-0.1,1v6.3H17c0,0,0.1-10.7,0-11.7h4.1v1.8c0.2-0.8,1.6-1.9,3.6-1.9c2.6,0,4.6,1.7,4.6,5.3V28.6z"/>
</svg>
