<?xml version="1.0" encoding="utf-8"?>
<!-- Generator: Adobe Illustrator 18.1.0, SVG Export Plug-In . SVG Version: 6.00 Build 0)  -->
<!DOCTYPE svg PUBLIC "-//W3C//DTD SVG 1.1//EN" "http://www.w3.org/Graphics/SVG/1.1/DTD/svg11.dtd">
<svg version="1.1" id="Layer_1" xmlns="http://www.w3.org/2000/svg" xmlns:xlink="http://www.w3.org/1999/xlink" x="0px" y="0px"
	 width="14px" height="14px" viewBox="-21 22 14 14" enable-background="new -21 22 14 14" xml:space="preserve">
<g opacity="0.4">
	<path fill="#848E9B" d="M-14.5,31.7l1-1c0.3,0.4,0.5,1,0.5,1.5c0,0.8-0.3,1.5-0.8,2l-1,0.9c-0.5,0.5-1.3,0.8-2,0.8
		c-0.8,0-1.5-0.3-2-0.8l-1.3-1.3c-1.1-1.1-1.1-2.9,0-4l0.9-0.9c0.5-0.5,1.3-0.8,2-0.8c0.6,0,1.1,0.2,1.5,0.4l-1,1
		c-0.1,0-0.3-0.1-0.5-0.1c-0.4,0-0.8,0.2-1.1,0.5l-0.9,0.9c-0.6,0.6-0.6,1.5,0,2.1l1.3,1.3c0.3,0.3,0.7,0.4,1.1,0.4
		c0.4,0,0.8-0.2,1.1-0.4l0.9-0.9C-14.4,32.8-14.3,32.2-14.5,31.7z M-11.2,27.1l-1-1l-4.7,4.8l1,1L-11.2,27.1z M-7.8,28.2l-0.9,0.9
		c-0.5,0.5-1.3,0.8-2,0.8c-0.5,0-1.1-0.2-1.5-0.4l1-1c0.2,0.1,0.3,0.1,0.5,0.1c0.4,0,0.8-0.2,1.1-0.4l0.9-0.9c0.6-0.6,0.6-1.5,0-2.1
		l-1.3-1.3c-0.3-0.3-0.7-0.4-1.1-0.4c-0.4,0-0.8,0.2-1.1,0.4l-0.9,0.8c-0.3,0.3-0.5,0.7-0.5,1.1c0,0.2,0,0.4,0.1,0.5l-1,1
		c-0.3-0.4-0.4-1-0.4-1.5c0-0.8,0.3-1.5,0.8-2l0.9-0.9c0.6-0.6,1.3-0.9,2.1-0.9c0.8,0,1.5,0.3,2,0.8l1.3,1.3
		C-6.7,25.2-6.7,27-7.8,28.2z"/>
</g>
</svg>
