<?xml version="1.0" encoding="utf-8"?>
<!-- Generator: Adobe Illustrator 18.0.0, SVG Export Plug-In . SVG Version: 6.00 Build 0)  -->
<!DOCTYPE svg PUBLIC "-//W3C//DTD SVG 1.1//EN" "http://www.w3.org/Graphics/SVG/1.1/DTD/svg11.dtd">
<svg version="1.1" id="Layer_1" xmlns="http://www.w3.org/2000/svg" xmlns:xlink="http://www.w3.org/1999/xlink" x="0px" y="0px"
	 width="45px" height="45px" viewBox="0 0 45 45" enable-background="new 0 0 45 45" xml:space="preserve">
<g>
	<path fill="#FFFFFF" d="M43.5,22c0,5.7-2.2,11.1-6.3,15.2s-9.5,6.3-15.2,6.3C10.2,43.5,0.5,33.9,0.5,22S10.1,0.5,22,0.5
		C33.8,0.5,43.5,10.1,43.5,22z M39.2,22c0-9.5-7.7-17.2-17.2-17.2C12.5,4.8,4.8,12.5,4.8,22S12.5,39.2,22,39.2c4.6,0,8.9-1.8,12.2-5
		C37.4,30.9,39.2,26.6,39.2,22z M29.4,13l1.6,1.5l-5.9,10.7L14.5,31l-1.6-1.5l5.9-10.6L29.4,13z M24.1,22c0-1.2-0.9-2.1-2.1-2.1
		s-2.1,0.9-2.1,2.1s0.9,2.1,2.1,2.1S24.1,23.2,24.1,22z"/>
</g>
</svg>
