<?xml version="1.0" encoding="utf-8"?>
<!-- Generator: Adobe Illustrator 18.0.0, SVG Export Plug-In . SVG Version: 6.00 Build 0)  -->
<!DOCTYPE svg PUBLIC "-//W3C//DTD SVG 1.1//EN" "http://www.w3.org/Graphics/SVG/1.1/DTD/svg11.dtd">
<svg version="1.1" id="Layer_1" xmlns="http://www.w3.org/2000/svg" xmlns:xlink="http://www.w3.org/1999/xlink" x="0px" y="0px"
	 width="14.7px" height="20px" viewBox="-0.2 -0.1 14.7 20" enable-background="new -0.2 -0.1 14.7 20" xml:space="preserve">
<g opacity="0.4">
	<path fill="#848E9B" d="M9.5,6.5c0,1.3-1,2.3-2.3,2.3s-2.3-1-2.3-2.3s1-2.3,2.3-2.3S9.5,5.3,9.5,6.5z"/>
	<path fill="#848E9B" d="M7.2-0.1c-4.1,0-7.4,3.2-7.4,7.2c0,3.2,1.7,5.7,3.3,7.7c0.9,1.2,3.1,3.9,3.2,4l0.9,1.1l0.9-1.1
		c0,0,2.3-2.8,3.2-4c1.6-2,3.3-4.5,3.3-7.7C14.6,3.1,11.3-0.1,7.2-0.1z M9.6,13.6c-0.6,0.7-1.6,2.1-2.4,3c-0.8-0.9-1.8-2.3-2.4-3
		C3,11.2,1.9,9.4,1.9,7.1c0-2.8,2.4-5.2,5.3-5.2s5.3,2.4,5.3,5.2C12.5,9.4,11.4,11.2,9.6,13.6z"/>
</g>
</svg>
