<?xml version="1.0" encoding="utf-8"?>
<!-- Generator: Adobe Illustrator 18.0.0, SVG Export Plug-In . SVG Version: 6.00 Build 0)  -->
<!DOCTYPE svg PUBLIC "-//W3C//DTD SVG 1.1//EN" "http://www.w3.org/Graphics/SVG/1.1/DTD/svg11.dtd">
<svg version="1.1" id="Layer_1" xmlns="http://www.w3.org/2000/svg" xmlns:xlink="http://www.w3.org/1999/xlink" x="0px" y="0px"
	 width="45px" height="45px" viewBox="0 0 45 45" enable-background="new 0 0 45 45" xml:space="preserve">
<g>
	<path fill="#FFFFFF" d="M45,4.8v4.6L27.2,23c-1.2,0.8-2.6,1.3-4.2,1.3c-1.5,0-2.9-0.4-4.2-1.3L0,8.6V4.8H45z M40.6,17.8L45,14v26.1
		H0V13.2L4.4,17v16.5l8.4-10.6l3.6,2.6L8.3,35.8h28.5L29,26.2l3.6-2.6l8,9.9V17.8H40.6z M38.4,9.3H7.7l13.8,10.3
		c0.8,0.6,2.2,0.6,3,0L38.4,9.3z"/>
</g>
</svg>
