<?xml version="1.0" encoding="utf-8"?>
<!-- Generator: Adobe Illustrator 18.0.0, SVG Export Plug-In . SVG Version: 6.00 Build 0)  -->
<!DOCTYPE svg PUBLIC "-//W3C//DTD SVG 1.1//EN" "http://www.w3.org/Graphics/SVG/1.1/DTD/svg11.dtd">
<svg version="1.1" id="Layer_1" xmlns="http://www.w3.org/2000/svg" xmlns:xlink="http://www.w3.org/1999/xlink" x="0px" y="0px"
	 width="18px" height="16px" viewBox="1 1.4 18 16" enable-background="new 1 1.4 18 16" xml:space="preserve">
<path opacity="0.4" fill="#848E9B" enable-background="new    " d="M5.9,17.5c0-4.4,0-7.6,0-12.1C7.3,6.8,8.6,8.4,10,9.9
	c1.4-1.5,2.7-3,4.1-4.6c0,4.4,0,7.7,0,12.1C11.4,17.5,8.6,17.5,5.9,17.5z"/>
<path opacity="0.4" fill="#848E9B" enable-background="new    " d="M19,17.5c-0.7,0-2.2,0-2.2,0s0-10,0-15.1c0-0.8,0-0.8,0.8-0.8
	c0.4,0,1.4,0,1.4,0S19,11.8,19,17.5z"/>
<path opacity="0.4" fill="#848E9B" enable-background="new    " d="M1,17.5c0.7,0,2.2,0,2.2,0s0-10,0-15.1c0-0.8,0-0.8-0.8-0.8
	C2,1.5,1,1.5,1,1.5S1,11.8,1,17.5z"/>
<circle opacity="0.4" fill="#848E9B" enable-background="new    " cx="10" cy="3.2" r="1.7"/>
</svg>
