<?xml version="1.0" encoding="utf-8"?>
<!-- Generator: Adobe Illustrator 18.0.0, SVG Export Plug-In . SVG Version: 6.00 Build 0)  -->
<!DOCTYPE svg PUBLIC "-//W3C//DTD SVG 1.1//EN" "http://www.w3.org/Graphics/SVG/1.1/DTD/svg11.dtd">
<svg version="1.1" id="Layer_1" xmlns="http://www.w3.org/2000/svg" xmlns:xlink="http://www.w3.org/1999/xlink" x="0px" y="0px"
	 width="15px" height="12.4px" viewBox="0 0 15 12.4" enable-background="new 0 0 15 12.4" xml:space="preserve">
<path opacity="0.5" fill="#FFFFFF" d="M15,0v9.4c0,0.8-0.3,1.5-0.9,2.1s-1.3,0.9-2.1,0.9H3.1H3c-0.8,0-1.5-0.3-2.1-0.9S0,10.3,0,9.4
	V1.8c0-0.5,0.2-0.9,0.5-1.3S1.3,0,1.8,0c0.5,0,0.9,0.2,1.3,0.5s0.5,0.8,0.5,1.3v6.4H2.3V1.8c0-0.2,0-0.3-0.1-0.4S2,1.3,1.8,1.3
	s-0.3,0-0.4,0.1S1.3,1.7,1.3,1.8v7.6c0,0.5,0.2,0.9,0.5,1.2s0.7,0.5,1.2,0.5c0.4,0,0.8-0.2,1.2-0.5s0.5-0.7,0.5-1.2V0H15z M13.7,1.3
	H5.9v8.1c0,0.6-0.2,1.2-0.5,1.7H12c0.5,0,0.9-0.2,1.2-0.5s0.5-0.7,0.5-1.2V1.3z M12.7,7.2H7V2.3h5.7V7.2z M12.7,9.6H7V8.3h5.7V9.6z
	 M8.3,5.9h3.1V3.6H8.3V5.9z"/>
</svg>
