<?xml version="1.0" encoding="utf-8"?>
<!-- Generator: Adobe Illustrator 18.0.0, SVG Export Plug-In . SVG Version: 6.00 Build 0)  -->
<!DOCTYPE svg PUBLIC "-//W3C//DTD SVG 1.1//EN" "http://www.w3.org/Graphics/SVG/1.1/DTD/svg11.dtd">
<svg version="1.1" id="Layer_1" xmlns="http://www.w3.org/2000/svg" xmlns:xlink="http://www.w3.org/1999/xlink" x="0px" y="0px"
	 width="20.1px" height="20px" viewBox="0 0.7 20.1 20" enable-background="new 0 0.7 20.1 20" xml:space="preserve">
<g>
	<path fill="#FFFFFF" d="M0.1,16.2c-0.3-1.1,0-1.7,1-2.2c0.8-0.3,1.7-0.8,2.6-1.2c0.6-0.2,1.2-0.5,1.6-0.8c0.3-0.1,0.5-0.2,0.9-0.2
		c0.6,0,1,0.4,1.2,0.5l1,1c0.5-0.3,1.5-1,2.5-1.9s1.6-1.9,1.9-2.5l-1-1c-0.8-0.8-0.6-1.3-0.3-2c0.2-0.4,0.4-1,0.8-1.6
		c0.4-0.9,0.9-1.8,1.2-2.6c0.1-0.3,0.4-1.1,1.4-1.1c0.2,0,0.5,0.1,0.8,0.1c2.3,0.6,4.6,2.4,4.6,4.7s-1.8,6.5-5.3,9.9
		S7.3,20.6,5,20.7l0,0C2.5,20.7,0.8,18.3,0.1,16.2z M1.8,15.7c0.4,1.6,1.7,3.3,3,3.3l0,0c1.6,0,5.4-1.5,8.6-4.7s4.7-7,4.7-8.6
		c0-1.3-1.7-2.6-3.3-3l0,0c-0.3,0.8-0.8,1.7-1.2,2.6c-0.3,0.5-0.5,1.2-0.8,1.5v0.1l0,0l1.9,1.9l-0.2,0.5c0,0.1-0.9,1.8-2.6,3.6
		s-3.4,2.6-3.6,2.6L8,15.8L6,13.8l0,0H5.9c-0.4,0.2-1,0.4-1.5,0.8C3.6,14.9,2.6,15.3,1.8,15.7L1.8,15.7z"/>
</g>
</svg>
