<?xml version="1.0" encoding="utf-8"?>
<!-- Generator: Adobe Illustrator 18.0.0, SVG Export Plug-In . SVG Version: 6.00 Build 0)  -->
<!DOCTYPE svg PUBLIC "-//W3C//DTD SVG 1.1//EN" "http://www.w3.org/Graphics/SVG/1.1/DTD/svg11.dtd">
<svg version="1.1" id="Layer_1" xmlns="http://www.w3.org/2000/svg" xmlns:xlink="http://www.w3.org/1999/xlink" x="0px" y="0px"
	 width="18.6px" height="18.6px" viewBox="0 0 18.6 18.6" enable-background="new 0 0 18.6 18.6" xml:space="preserve">
<g opacity="0.4" enable-background="new    ">
	<path fill="#848E9B" d="M0.1,14.4c-0.3-1,0-1.6,0.9-2c0.7-0.3,1.6-0.7,2.4-1.1c0.6-0.2,1.1-0.5,1.5-0.7c0.3-0.1,0.5-0.2,0.8-0.2
		c0.6,0,0.9,0.4,1.1,0.5l0.9,0.9c0.5-0.3,1.4-0.9,2.3-1.8s1.5-1.8,1.8-2.3l-0.9-0.9c-0.7-0.7-0.6-1.2-0.3-1.9
		C10.8,4.5,11,4,11.3,3.4c0.4-0.8,0.8-1.7,1.1-2.4c0.1-0.3,0.4-1,1.3-1c0.2,0,0.5,0.1,0.7,0.1c2.1,0.6,4.3,2.2,4.3,4.4
		s-1.7,6-4.9,9.2s-7,4.8-9.2,4.9l0,0C2.3,18.6,0.7,16.4,0.1,14.4z M1.7,13.9C2.1,15.4,3.3,17,4.5,17l0,0c1.5,0,5-1.4,8-4.4
		s4.4-6.5,4.4-8c0-1.2-1.6-2.4-3.1-2.8l0,0c-0.3,0.7-0.7,1.6-1.1,2.4c-0.3,0.5-0.5,1.1-0.7,1.4v0.1l0,0l1.8,1.8L13.6,8
		c0,0.1-0.8,1.7-2.4,3.3S8,13.7,7.9,13.7L7.4,14l-1.8-1.8l0,0H5.5c-0.4,0.2-0.9,0.4-1.4,0.7C3.3,13.2,2.4,13.6,1.7,13.9L1.7,13.9z"
		/>
</g>
</svg>
