<?xml version="1.0" encoding="utf-8"?>
<!-- Generator: Adobe Illustrator 18.0.0, SVG Export Plug-In . SVG Version: 6.00 Build 0)  -->
<!DOCTYPE svg PUBLIC "-//W3C//DTD SVG 1.1//EN" "http://www.w3.org/Graphics/SVG/1.1/DTD/svg11.dtd">
<svg version="1.1" id="Layer_1" xmlns="http://www.w3.org/2000/svg" xmlns:xlink="http://www.w3.org/1999/xlink" x="0px" y="0px"
	 width="10.1px" height="14px" viewBox="0 0 10.1 14" enable-background="new 0 0 10.1 14" xml:space="preserve">
<path opacity="0.5" fill="#FFFFFF" d="M10.1,5.1c0,1-0.2,1.9-0.6,2.7c-0.4,0.8-1,1.7-1.7,2.7c-0.2,0.2-0.5,0.6-0.8,1
	c-0.4,0.5-0.7,0.9-1,1.2l-0.4,0.5L5,14l-0.6-0.7c0,0-0.7-0.9-2.2-2.8C0.8,8.5,0,6.7,0,5.1c0-1.4,0.5-2.6,1.5-3.6S3.6,0,5,0
	c1.4,0,2.6,0.5,3.6,1.5S10.1,3.7,10.1,5.1z M1.4,5c0,0.8,0.2,1.5,0.5,2.2s0.8,1.5,1.5,2.4c0,0.1,0.3,0.3,0.7,0.9s0.7,0.9,0.9,1.2
	C6,10.5,6.5,9.8,6.6,9.6c0.7-0.9,1.2-1.7,1.5-2.4C8.5,6.5,8.6,5.8,8.6,5c0-1-0.4-1.9-1.1-2.6S6,1.4,5,1.4c-1,0-1.9,0.4-2.6,1.1
	S1.4,4,1.4,5z M3.3,4.6c0-0.5,0.2-0.9,0.5-1.2S4.6,2.9,5,2.9c0.5,0,0.8,0.2,1.2,0.5s0.5,0.7,0.5,1.2S6.5,5.4,6.2,5.8S5.5,6.3,5,6.3
	c-0.5,0-0.9-0.2-1.2-0.5S3.3,5,3.3,4.6z"/>
</svg>
