<?xml version="1.0" encoding="utf-8"?>
<!-- Generator: Adobe Illustrator 18.1.0, SVG Export Plug-In . SVG Version: 6.00 Build 0)  -->
<!DOCTYPE svg PUBLIC "-//W3C//DTD SVG 1.1//EN" "http://www.w3.org/Graphics/SVG/1.1/DTD/svg11.dtd">
<svg version="1.1" id="Layer_1" xmlns="http://www.w3.org/2000/svg" xmlns:xlink="http://www.w3.org/1999/xlink" x="0px" y="0px"
	 width="14px" height="14px" viewBox="-21 22 14 14" enable-background="new -21 22 14 14" xml:space="preserve">
<g opacity="0.4">
	<path fill="#848E9B" d="M-10.6,28l0.9,0.9l-5.1,5.1l-6.2,2l2.1-6.2l5.1-5.1l0.8,0.9l-4.8,4.9l-0.9,2.6l0.6,0.6l2.6-0.9L-10.6,28z
		 M-17,31.4c0-0.2,0-0.3,0.2-0.4l4.6-4.6l0.9,0.9l-4.6,4.5c-0.2,0.2-0.3,0.2-0.5,0.2c-0.2,0-0.3,0-0.4-0.2C-17,31.7-17,31.6-17,31.4
		z M-7,25.4c0,0.4-0.2,0.8-0.5,1.2L-9,28.1l-4.1-4.1l1.5-1.5c0.3-0.3,0.7-0.5,1.2-0.5c0.4,0,0.9,0.2,1.2,0.5l1.8,1.8
		C-7.2,24.6-7,25-7,25.4z M-8.3,25.4c0-0.1,0-0.2-0.1-0.3l-1.8-1.8c-0.1-0.1-0.2-0.1-0.3-0.1s-0.2,0-0.3,0.1l-0.5,0.7l2.3,2.3
		l0.6-0.6C-8.3,25.6-8.3,25.5-8.3,25.4z"/>
</g>
</svg>
