<?xml version="1.0" encoding="utf-8"?>
<!-- Generator: Adobe Illustrator 18.0.0, SVG Export Plug-In . SVG Version: 6.00 Build 0)  -->
<!DOCTYPE svg PUBLIC "-//W3C//DTD SVG 1.1//EN" "http://www.w3.org/Graphics/SVG/1.1/DTD/svg11.dtd">
<svg version="1.1" id="Layer_1" xmlns="http://www.w3.org/2000/svg" xmlns:xlink="http://www.w3.org/1999/xlink" x="0px" y="0px"
	 width="12.6px" height="14px" viewBox="0 0 12.6 14" enable-background="new 0 0 12.6 14" xml:space="preserve">
<g opacity="0.5">
	<path fill="#848E9B" d="M4.4,10.9v1.8c-0.1-0.1-0.2-0.1-0.3-0.2L0.8,9.1c-1.1-1.1-1.1-2.8,0-3.9l3.9-3.9l-2.5,0V0L7,0l0,4.7H5.7
		V2.2L1.7,6.2c-0.6,0.6-0.6,1.5,0,2L4.4,10.9z M10.3,14l-4.7,0V9.3l1.3,0v2.5l3.9-3.9c0.6-0.6,0.6-1.5,0-2L8.2,3.1V1.3
		c0.1,0.1,0.2,0.1,0.3,0.2l3.3,3.3c1.1,1.1,1.1,2.8,0,3.9l-3.9,3.9l2.5,0V14z"/>
</g>
</svg>
