<?xml version="1.0" encoding="utf-8"?>
<!-- Generator: Adobe Illustrator 18.0.0, SVG Export Plug-In . SVG Version: 6.00 Build 0)  -->
<!DOCTYPE svg PUBLIC "-//W3C//DTD SVG 1.1//EN" "http://www.w3.org/Graphics/SVG/1.1/DTD/svg11.dtd">
<svg version="1.1" id="Layer_1" xmlns="http://www.w3.org/2000/svg" xmlns:xlink="http://www.w3.org/1999/xlink" x="0px" y="0px"
	 width="11px" height="13.9px" viewBox="0 0 11 13.9" enable-background="new 0 0 11 13.9" xml:space="preserve">
<path opacity="0.5" fill="#FFFFFF" d="M10.5,12.4c-0.6,1-1.5,1.5-2.7,1.5H3.2c-1.2,0-2.1-0.5-2.7-1.5c-0.6-1-0.7-2-0.2-3.1l1.8-3.9
	c0,0,0,0,0-0.1s0-0.1,0.1-0.1c0.2-0.4,0.3-0.7,0.3-0.8v-3H1.7V0h7.6v1.4H8.4v3c0,0.2,0.1,0.4,0.3,0.8c0,0,0,0.1,0,0.1s0,0.1,0.1,0.1
	l1.9,3.9C11.2,10.4,11.1,11.4,10.5,12.4z M9.3,10L7.5,6.1c0-0.1,0-0.1-0.1-0.2C7.1,5.2,6.9,4.8,6.9,4.5v-3H4v3
	c0,0.3-0.1,0.8-0.4,1.4c0,0,0,0-0.1,0.1S3.5,6,3.5,6.1L1.6,10c-0.3,0.6-0.3,1.1,0.1,1.7c0.4,0.6,0.9,0.8,1.5,0.8h4.5
	c0.6,0,1.1-0.3,1.5-0.8C9.6,11.1,9.6,10.5,9.3,10z M8,10c0.1,0.3,0.1,0.6-0.1,0.9c-0.2,0.3-0.5,0.4-0.8,0.4H3.8
	c-0.4,0-0.6-0.1-0.8-0.4C2.8,10.6,2.8,10.3,3,10l1.4-2.9h2.3C6.7,7.3,7.2,8.2,8,10z"/>
</svg>
