<?xml version="1.0" encoding="utf-8"?>
<!-- Generator: Adobe Illustrator 18.0.0, SVG Export Plug-In . SVG Version: 6.00 Build 0)  -->
<!DOCTYPE svg PUBLIC "-//W3C//DTD SVG 1.1//EN" "http://www.w3.org/Graphics/SVG/1.1/DTD/svg11.dtd">
<svg version="1.1" id="Layer_1" xmlns="http://www.w3.org/2000/svg" xmlns:xlink="http://www.w3.org/1999/xlink" x="0px" y="0px"
	 width="24px" height="24px" viewBox="731.9 144 24 24" enable-background="new 731.9 144 24 24" xml:space="preserve">
<path fill="#FFFFFF" d="M749,159.3c1.1-1.5,1.7-3.3,1.7-5.2c0-2.3-0.9-4.5-2.5-6.1c-1.6-1.6-3.8-2.5-6.1-2.5c-2.3,0-4.5,0.9-6.1,2.5
	c-1.6,1.6-2.5,3.8-2.5,6.1s0.9,4.5,2.5,6.1c1.6,1.6,3.8,2.5,6.1,2.5c1.9,0,3.7-0.6,5.2-1.7l5.4,5.4l0.1,0.1l1.6-1.6l0.2-0.2
	L749,159.3z M748.2,154.2c0,1.6-0.6,3.2-1.8,4.3c-1.2,1.2-2.7,1.8-4.3,1.8c-1.6,0-3.2-0.6-4.3-1.8c-1.2-1.2-1.8-2.7-1.8-4.3
	c0-1.6,0.6-3.2,1.8-4.3c1.2-1.2,2.7-1.8,4.3-1.8c1.6,0,3.2,0.6,4.3,1.8C747.5,151,748.2,152.5,748.2,154.2z"/>
</svg>
