<?xml version="1.0" encoding="utf-8"?>
<!-- Generator: Adobe Illustrator 18.0.0, SVG Export Plug-In . SVG Version: 6.00 Build 0)  -->
<!DOCTYPE svg PUBLIC "-//W3C//DTD SVG 1.1//EN" "http://www.w3.org/Graphics/SVG/1.1/DTD/svg11.dtd">
<svg version="1.1" id="Layer_1" xmlns="http://www.w3.org/2000/svg" xmlns:xlink="http://www.w3.org/1999/xlink" x="0px" y="0px"
	 width="25px" height="25px" viewBox="36 36 25 25" enable-background="new 36 36 25 25" xml:space="preserve">
<path opacity="0.8" fill="#FFFFFF" d="M54.5,52.4c1.3-1.9,2-4,2-6.2c0-2.7-1.1-5.4-3-7.3c-1.9-1.9-4.5-3-7.3-3c-2.7,0-5.4,1.1-7.3,3
	c-2,2-3,4.4-3,7.3c0,2.8,1,5.2,3,7.5c1.9,1.9,4.5,3,7.3,3c2.3,0,4.4-0.7,6.2-2.2l6.2,6.5l2.4-2L54.5,52.4z M46.2,53.4
	c-1.9,0-3.8-0.8-5.2-2.2c-1.2-1.2-2-3.1-2-4.9c0-1.9,0.8-3.8,2.2-5.2c1.3-1.3,3-2,4.9-2c2,0,3.7,0.7,5.2,2.2c1.3,1.3,2,3.6,2,5.2
	c0,1.8-0.8,3.7-2,4.9C49.8,52.8,48.1,53.4,46.2,53.4z"/>
</svg>
