<?xml version="1.0" encoding="utf-8"?>
<!-- Generator: Adobe Illustrator 18.1.0, SVG Export Plug-In . SVG Version: 6.00 Build 0)  -->
<!DOCTYPE svg PUBLIC "-//W3C//DTD SVG 1.1//EN" "http://www.w3.org/Graphics/SVG/1.1/DTD/svg11.dtd">
<svg version="1.1" id="Layer_1" xmlns="http://www.w3.org/2000/svg" xmlns:xlink="http://www.w3.org/1999/xlink" x="0px" y="0px"
	 viewBox="-411 292.1 17.1 11.9" enable-background="new -411 292.1 17.1 11.9" xml:space="preserve">
<g opacity="0.4">
	<path fill="#848E9B" d="M-400.9,302.5l1.4,1.4c-0.1,0-0.3,0-0.4,0h-5.2c-1.7,0-3-1.4-3-3v-6.1l-1.9,2l-1-1l3.6-3.7l3.6,3.7l-1,1
		l-1.8-1.9v6.1c0,0.9,0.7,1.6,1.6,1.6h4.1V302.5z M-393.9,300.3l-3.7,3.6l-3.6-3.6l1-1l1.9,1.9v-6c0-0.9-0.7-1.6-1.6-1.6h-4.1
		l-1.4-1.4c0.1,0,0.3,0,0.4,0h5.2c1.7,0,3,1.3,3,3v6.1l1.8-2L-393.9,300.3z"/>
</g>
</svg>
