<?xml version="1.0" encoding="utf-8"?>
<!-- Generator: Adobe Illustrator 18.1.0, SVG Export Plug-In . SVG Version: 6.00 Build 0)  -->
<!DOCTYPE svg PUBLIC "-//W3C//DTD SVG 1.1//EN" "http://www.w3.org/Graphics/SVG/1.1/DTD/svg11.dtd">
<svg version="1.1" id="Layer_1" xmlns="http://www.w3.org/2000/svg" xmlns:xlink="http://www.w3.org/1999/xlink" x="0px" y="0px"
	 width="17.1px" height="11.9px" viewBox="0 0 17.1 11.9" enable-background="new 0 0 17.1 11.9" xml:space="preserve">
<g opacity="0.4">
	<path fill="#FFFFFF" d="M10.1,10.4l1.4,1.4c-0.1,0-0.3,0-0.4,0H5.9c-1.7,0-3-1.4-3-3V2.7L1,4.7l-1-1L3.6,0l3.6,3.7l-1,1L4.4,2.8
		v6.1c0,0.9,0.7,1.6,1.6,1.6H10.1z M17.1,8.2l-3.7,3.6L9.8,8.2l1-1l1.9,1.9V3.1c0-0.9-0.7-1.6-1.6-1.6H7L5.6,0.1c0.1,0,0.3,0,0.4,0
		h5.2c1.7,0,3,1.3,3,3v6.1L16,7.2L17.1,8.2z"/>
</g>
</svg>
