<?xml version="1.0" encoding="utf-8"?>
<!-- Generator: Adobe Illustrator 18.0.0, SVG Export Plug-In . SVG Version: 6.00 Build 0)  -->
<!DOCTYPE svg PUBLIC "-//W3C//DTD SVG 1.1//EN" "http://www.w3.org/Graphics/SVG/1.1/DTD/svg11.dtd">
<svg version="1.1" id="Layer_1" xmlns="http://www.w3.org/2000/svg" xmlns:xlink="http://www.w3.org/1999/xlink" x="0px" y="0px"
	 width="15.2px" height="20px" viewBox="0 0 15.2 20" enable-background="new 0 0 15.2 20" xml:space="preserve">
<path opacity="0.4" fill="#848E9B" enable-background="new    " d="M12.2,13.9c-0.6,0-1.2,0.2-1.6,0.5l-2.3-1.8
	C8.8,11.8,9.1,11,9.1,10S8.8,8.2,8.3,7.4l2.3-1.8c0.5,0.3,1,0.5,1.6,0.5c1.7,0,3-1.4,3-3s-1.4-3-3-3c-1.7,0-3,1.4-3,3
	c0,0.6,0.2,1.1,0.4,1.6L7.3,6.4c-0.8-0.6-1.7-1-2.8-1C2,5.4,0,7.5,0,10s2,4.6,4.6,4.6c1.1,0,2-0.4,2.8-1l2.3,1.8
	c-0.3,0.5-0.4,1-0.4,1.6c0,1.7,1.4,3,3,3c1.7,0,3-1.4,3-3C15.2,15.3,13.9,13.9,12.2,13.9z M1.4,10c0-1.7,1.4-3.2,3.2-3.2
	c1.7,0,3.2,1.4,3.2,3.2c0,1.7-1.4,3.2-3.2,3.2S1.4,11.7,1.4,10z"/>
</svg>
