<?xml version="1.0" encoding="utf-8"?>
<!-- Generator: Adobe Illustrator 18.0.0, SVG Export Plug-In . SVG Version: 6.00 Build 0)  -->
<!DOCTYPE svg PUBLIC "-//W3C//DTD SVG 1.1//EN" "http://www.w3.org/Graphics/SVG/1.1/DTD/svg11.dtd">
<svg version="1.1" id="Layer_1" xmlns="http://www.w3.org/2000/svg" xmlns:xlink="http://www.w3.org/1999/xlink" x="0px" y="0px"
	 width="45px" height="45px" viewBox="0 0 45 45" enable-background="new 0 0 45 45" xml:space="preserve">
<g>
	<path fill="#FFFFFF" d="M44.5,22.5c0,5.9-2.3,11.4-6.5,15.5s-9.7,6.5-15.5,6.5c-12.1,0-22-9.9-22-22s9.9-22,22-22
		S44.5,10.4,44.5,22.5z M40.2,22.5c0-9.8-7.9-17.7-17.7-17.7S4.8,12.7,4.8,22.5s7.9,17.7,17.7,17.7c4.7,0,9.2-1.8,12.5-5.1
		S40.2,27.2,40.2,22.5z M24.7,21.7l9.2,5.7l-2.4,3.8l-11.4-7V9.5h4.5C24.7,9.5,24.7,21.7,24.7,21.7z"/>
</g>
</svg>
