<?xml version="1.0" encoding="utf-8"?>
<!-- Generator: Adobe Illustrator 18.0.0, SVG Export Plug-In . SVG Version: 6.00 Build 0)  -->
<!DOCTYPE svg PUBLIC "-//W3C//DTD SVG 1.1//EN" "http://www.w3.org/Graphics/SVG/1.1/DTD/svg11.dtd">
<svg version="1.1" id="Layer_1" xmlns="http://www.w3.org/2000/svg" xmlns:xlink="http://www.w3.org/1999/xlink" x="0px" y="0px"
	 width="15px" height="20px" viewBox="0 0 15 20" enable-background="new 0 0 15 20" xml:space="preserve">
<path opacity="0.4" fill="#FFFFFF" d="M12,13.9c-0.6,0-1.2,0.2-1.6,0.5l-2.5-2c0.5-0.7,0.8-1.5,0.8-2.4c0-0.9-0.3-1.7-0.8-2.4l2.5-2
	c0.5,0.3,1,0.5,1.6,0.5c1.7,0,3-1.4,3-3s-1.4-3-3-3c-1.7,0-3,1.4-3,3c0,0.6,0.2,1.1,0.4,1.6l-2.5,2C6.2,6,5.3,5.7,4.3,5.7
	C1.9,5.7,0,7.6,0,10s1.9,4.3,4.3,4.3c1,0,1.9-0.3,2.6-0.9l2.5,2c-0.3,0.5-0.4,1-0.4,1.6c0,1.7,1.4,3,3,3c1.7,0,3-1.4,3-3
	C15,15.3,13.6,13.9,12,13.9z M12,1.4c0.9,0,1.7,0.7,1.7,1.7S12.9,4.7,12,4.7S10.3,4,10.3,3S11,1.4,12,1.4z M12,18.6
	c-0.9,0-1.7-0.7-1.7-1.7c0-0.9,0.7-1.7,1.7-1.7s1.7,0.7,1.7,1.7C13.6,17.9,12.9,18.6,12,18.6z"/>
</svg>
