<?xml version="1.0" encoding="utf-8"?>
<!-- Generator: Adobe Illustrator 18.1.0, SVG Export Plug-In . SVG Version: 6.00 Build 0)  -->
<!DOCTYPE svg PUBLIC "-//W3C//DTD SVG 1.1//EN" "http://www.w3.org/Graphics/SVG/1.1/DTD/svg11.dtd">
<svg version="1.1" id="Layer_1" xmlns="http://www.w3.org/2000/svg" xmlns:xlink="http://www.w3.org/1999/xlink" x="0px" y="0px"
	 viewBox="-412.1 291.1 17.1 13.9" enable-background="new -412.1 291.1 17.1 13.9" xml:space="preserve">
<g opacity="0.5">
	<path fill="#A0A8B2" d="M-394.9,296.5v5.2c0,0.5-0.4,0.9-0.9,0.9c-0.1,0-0.3,0-0.4-0.1l-2-0.8v0.4c0,1.2-1,2.2-2.2,2.2h-9.5
		c-1.2,0-2.2-1-2.2-2.2v-5.9c0-1.2,1-2.2,2.2-2.2h5.6l0.5,1.5h-6.1c-0.4,0-0.7,0.3-0.7,0.7v5.9c0,0.4,0.3,0.7,0.7,0.7h9.5
		c0.4,0,0.7-0.3,0.7-0.7v-5.9c0-0.4-0.3-0.7-0.7-0.7h-1.8l-1-3h-6.8v-1.5h7.3c0.3,0,0.6,0.2,0.7,0.5l0.8,2.5h0.8
		c1.2,0,2.2,1,2.2,2.2v0.1l2-0.8c0.1,0,0.2-0.1,0.4-0.1C-395.3,295.5-394.9,295.9-394.9,296.5z M-408.5,301.1v-1.5h6.8v1.5H-408.5z
		 M-396.4,297.3l-1.8,0.7v2.2l1.8,0.7V297.3z"/>
</g>
</svg>
