<?xml version="1.0" encoding="utf-8"?>
<!-- Generator: Adobe Illustrator 18.0.0, SVG Export Plug-In . SVG Version: 6.00 Build 0)  -->
<!DOCTYPE svg PUBLIC "-//W3C//DTD SVG 1.1//EN" "http://www.w3.org/Graphics/SVG/1.1/DTD/svg11.dtd">
<svg version="1.1" id="Layer_1" xmlns="http://www.w3.org/2000/svg" xmlns:xlink="http://www.w3.org/1999/xlink" x="0px" y="0px"
	 width="45px" height="45px" viewBox="27.5 24.6 45 45" enable-background="new 27.5 24.6 45 45" xml:space="preserve">
<g>
	<path fill="#FFFFFF" d="M58.4,58.2c0,4.5-3.7,8.2-8.2,8.2H34.6c-3.9,0-7.1-3.2-7.1-7.1c0-3,1.6-5.4,4.4-6.6c0.1-2.5,1-4.7,2.5-6.4
		c1.8-2,4.5-3.1,7.4-3.1c4.4,0,8.2,2.9,9.5,7C55.5,51.1,58.4,54.3,58.4,58.2z M54.9,58.2c0-2.6-2-4.5-5.1-4.7l-1.4-0.1l-0.2-1.3
		c-0.5-3.1-3.2-5.3-6.4-5.3c-2,0-3.7,0.7-4.9,1.9c-1.2,1.3-1.7,3.1-1.6,5.1l0.1,1.5l-1.5,0.4c-2,0.5-3.1,1.8-3.1,3.7
		c0,2,1.6,3.6,3.6,3.6h15.6C52.8,62.9,54.9,60.8,54.9,58.2z M45.6,39.2l-5-5l2.5-2.5l5,5C47.1,37.4,46.3,38.3,45.6,39.2z M62.7,45.7
		c0,2.7-1.3,5-3.3,6.5c-0.7-0.9-1.5-1.8-2.4-2.5c1.3-0.8,2.2-2.3,2.2-4c0-2.6-2.1-4.7-4.7-4.7c-1.8,0-3.4,1.1-4.2,2.6
		c-0.8-0.7-1.8-1.4-2.8-1.9c1.4-2.4,4-4.1,7-4.1C59,37.6,62.7,41.2,62.7,45.7z M54.6,34.6c-0.6,0-1.2,0-1.8,0.2v-7h3.5v7
		C55.8,34.7,55.2,34.6,54.6,34.6z M61,36.7l5-5l2.5,2.5l-5,5C62.8,38.3,62,37.4,61,36.7z M63.5,52.2l5,4.9L66,59.6l-5-5
		C62,54,62.8,53.1,63.5,52.2z M72.5,43.9v3.5h-7c0.1-0.6,0.2-1.2,0.2-1.8s0-1.2-0.2-1.8H72.5z"/>
</g>
</svg>
